<svg width="259" height="144" viewBox="0 0 259 144" fill="none" xmlns="http://www.w3.org/2000/svg">
<mask id="mask0_1060_57" style="mask-type:luminance" maskUnits="userSpaceOnUse" x="0" y="12" width="79" height="78">
<path d="M0 12.5209H78.3177V89.6667H0V12.5209Z" fill="white"/>
</mask>
<g mask="url(#mask0_1060_57)">
<path d="M77.1406 50.9844C77.1406 72.224 59.9219 89.4428 38.6823 89.4428C17.4375 89.4428 0.21875 72.224 0.21875 50.9844C0.21875 29.7396 17.4375 12.5209 38.6823 12.5209C59.9219 12.5209 77.1406 29.7396 77.1406 50.9844Z" fill="black"/>
</g>
<mask id="mask1_1060_57" style="mask-type:luminance" maskUnits="userSpaceOnUse" x="168" y="48" width="42" height="42">
<path d="M168.984 48.3334H209.849V89.6667H168.984V48.3334Z" fill="white"/>
</mask>
<g mask="url(#mask1_1060_57)">
<path d="M209.443 69.4427C209.443 80.4896 200.49 89.4428 189.443 89.4428C178.401 89.4428 169.443 80.4896 169.443 69.4427C169.443 58.3959 178.401 49.4427 189.443 49.4427C200.49 49.4427 209.443 58.3959 209.443 69.4427Z" fill="#C1FF72"/>
</g>
<mask id="mask2_1060_57" style="mask-type:luminance" maskUnits="userSpaceOnUse" x="38" y="12" width="90" height="78">
<path d="M38.3176 12.5209H127.651V89.6667H38.3176V12.5209Z" fill="white"/>
</mask>
<g mask="url(#mask2_1060_57)">
<path d="M82.401 13.2917L126.37 89.4428H38.4375L82.401 13.2917Z" fill="#C1FF72"/>
</g>
<path d="M127.906 81.75L105.927 43.6771H149.891L127.906 81.75Z" fill="#C1FF72"/>
<path d="M151.427 51.3698L173.411 89.4427H129.448L151.427 51.3698Z" fill="#C1FF72"/>
<mask id="mask3_1060_57" style="mask-type:luminance" maskUnits="userSpaceOnUse" x="13" y="0" width="246" height="144">
<path d="M258.318 0H13.3176V144H258.318V0Z" fill="white"/>
</mask>
<g mask="url(#mask3_1060_57)">
<path d="M98.2571 11.5184C98.7259 11.5184 99.1425 11.6798 99.5071 11.9976C99.8821 12.3205 100.09 12.6798 100.132 13.0809C100.184 13.8726 100.163 14.6382 100.07 15.3726C100.028 16.1642 99.9238 16.909 99.7571 17.6017C99.6998 17.909 99.6738 18.1955 99.6738 18.4559C97.7988 27.0132 95.4342 35.3726 92.5905 43.5392C92.3405 44.4715 92.2155 45.4142 92.2155 46.3726C92.2988 47.5132 92.08 48.5809 91.5696 49.5809C90.3717 51.3726 89.4082 53.2371 88.6738 55.1642C83.8248 68.9559 78.6321 82.5913 73.0905 96.0601C68.4082 107.586 63.1217 118.857 57.2155 129.873C55.5905 132.758 53.8613 135.623 52.028 138.456C51.1269 139.664 50.1269 140.794 49.028 141.852C48.028 142.685 46.8717 142.919 45.5488 142.56C44.205 142.227 43.5488 141.357 43.5905 139.956C43.7571 138.289 44.1269 136.664 44.6946 135.081C48.1113 125.649 51.8925 116.373 56.028 107.248C63.6425 89.9455 72.4707 73.3205 82.528 57.3726C84.3613 54.3309 85.778 51.1642 86.778 47.8726C88.554 42.5132 90.2259 37.1382 91.7988 31.7476C93.3821 26.3465 94.7415 20.8882 95.8821 15.3726C96.0488 14.4976 96.2623 13.6017 96.528 12.6851C96.8457 11.909 97.4238 11.5184 98.2571 11.5184ZM51.0696 132.56C55.9446 123.643 60.3925 114.56 64.403 105.31C68.403 96.0601 72.08 86.6382 75.4446 77.0392C75.3873 77.0809 75.3405 77.1642 75.2988 77.2892C75.1321 77.3882 74.9759 77.5184 74.8405 77.6851C74.4498 78.3517 74.08 79.008 73.7363 79.6434C69.3196 87.8257 65.2363 96.159 61.4863 104.643C57.7363 113.143 54.153 121.685 50.7363 130.268C50.6946 130.378 50.6738 130.461 50.6738 130.518C50.5384 130.779 50.4655 131.081 50.4655 131.414C50.4655 131.758 50.6686 132.143 51.0696 132.56ZM255.132 9.53922C255.132 9.76318 255.028 9.98714 254.82 10.2059C254.622 10.4142 254.393 10.5757 254.132 10.6851C253.867 10.784 253.632 10.7788 253.424 10.6642C252.059 9.83089 250.616 9.26839 249.09 8.97672C247.575 8.68505 246.054 8.45589 244.528 8.28922C243.372 8.24755 242.247 8.12255 241.153 7.91422C237.054 7.28922 232.955 6.76318 228.861 6.33089C215.403 5.23714 201.903 4.63818 188.361 4.53922C175.33 4.37255 162.283 4.65901 149.215 5.39339C134.491 6.14339 119.788 7.24234 105.111 8.68505C91.6217 9.90901 78.1738 11.3726 64.7571 13.0809C63.9238 13.2059 63.0592 13.3205 62.153 13.4142C57.028 14.1121 51.9134 14.8517 46.7988 15.6434C41.6894 16.4246 36.58 17.383 31.4655 18.5184C31.0644 18.6434 30.6477 18.758 30.2155 18.8517C28.2467 19.3257 26.2571 19.8465 24.2571 20.4142C22.2571 20.9871 20.3405 21.7476 18.5071 22.7059C18.2467 22.8465 17.955 22.9507 17.6321 23.0184C17.2311 23.0757 16.8509 23.0601 16.4863 22.9767C16.1113 22.8934 15.8196 22.6746 15.6113 22.3101C15.3925 21.9351 15.3561 21.5809 15.5071 21.2476C15.6634 20.9142 15.9342 20.6382 16.3196 20.4142C17.5175 19.7892 18.7675 19.2423 20.0696 18.7684C23.3353 17.6746 26.6321 16.7423 29.9655 15.9767C33.2884 15.2163 36.6269 14.5496 39.9863 13.9767C49.6842 12.3413 59.3769 10.909 69.0696 9.68505C78.778 8.45068 88.528 7.35172 98.3196 6.39339C112.07 4.99234 125.83 3.87255 139.611 3.03922C151.622 2.26318 163.632 1.81005 175.632 1.68505C184.45 1.5913 193.262 1.67463 202.07 1.93505C210.872 2.20068 219.674 2.72672 228.465 3.51839C236.507 4.35172 244.476 5.57568 252.382 7.18505C253.117 7.35172 253.799 7.61734 254.424 7.97672C254.95 8.35172 255.184 8.87255 255.132 9.53922Z" fill="black"/>
<path d="M117.494 79.9559C118.046 80.2788 118.088 81.0548 117.619 82.2892C116.921 83.1955 116.182 84.0392 115.39 84.8309C114.609 85.6225 113.754 86.3257 112.827 86.935C112.754 86.935 112.723 86.9663 112.723 87.0184C112.098 87.4507 111.437 87.8205 110.744 88.1225C105.046 90.1642 102.145 88.9663 102.036 84.5184C99.7128 86.5184 98.1659 87.7423 97.3899 88.185C95.4993 89.31 93.4576 89.81 91.2649 89.685C89.6555 89.5913 88.5565 89.0965 87.9732 88.2059C87.3899 87.3205 87.442 86.1121 88.119 84.5809C89.1763 82.1798 90.6711 80.034 92.5982 78.1434C94.8586 76.0496 97.3743 74.3673 100.14 73.1017C101.609 72.3673 103.161 72.0809 104.786 72.2475C106.411 72.3465 107.39 73.2632 107.723 74.9975C107.859 75.5288 107.728 75.9923 107.327 76.3934C106.796 76.8673 106.187 76.9767 105.494 76.7267C105.452 76.7267 105.39 76.7163 105.307 76.685C105.223 76.659 105.15 76.6225 105.098 76.5809C104.416 75.6225 103.723 75.2215 103.015 75.3725C102.307 75.5288 101.562 75.8465 100.786 76.3309C97.1034 78.4715 94.3743 81.4559 92.5982 85.2892C92.4993 85.4559 92.4368 85.6434 92.4107 85.8517C92.3795 86.0496 92.442 86.2059 92.5982 86.3309C93.0253 86.4715 93.4993 86.4455 94.0149 86.2475C94.5409 86.0392 95.067 85.7423 95.5982 85.3517C96.1243 84.9663 96.5618 84.6382 96.9107 84.3725C96.9628 84.3048 96.994 84.2684 96.994 84.2684C98.7284 82.81 100.432 81.3205 102.098 79.7892C102.833 78.9975 103.749 78.56 104.848 78.4767C106.432 78.4767 107.088 79.1798 106.827 80.5809C106.671 81.1121 106.515 81.633 106.348 82.1434C105.734 84.409 105.713 85.7423 106.286 86.1434C106.853 86.534 107.728 86.534 108.911 86.1434C110.088 85.7423 111.27 84.9923 112.452 83.8934C113.629 82.784 114.624 81.7684 115.432 80.8517C116.249 79.935 116.937 79.6382 117.494 79.9559Z" fill="black"/>
<path d="M132.542 81.1226C133.333 80.3309 133.99 79.8882 134.521 79.7892C135.047 79.6955 135.385 79.7788 135.542 80.0392C135.693 80.3049 135.589 80.6642 135.229 81.1226C133.13 83.6382 130.781 85.8205 128.187 87.6642C125.589 89.4976 122.917 90.5601 120.167 90.8517C117.417 91.133 115.755 89.6226 115.187 86.3309C114.76 83.0705 116.729 76.4246 121.104 66.3934C125.49 56.3517 128.964 48.133 131.521 41.7267C131.729 41.159 132.047 40.659 132.479 40.2267C133.047 39.6434 133.729 39.5132 134.521 39.8309C134.781 39.9455 135.042 40.133 135.292 40.3934C135.552 40.659 135.646 41.1226 135.562 41.7892C124.281 68.5288 118.818 83.0705 119.167 85.4142C119.526 87.7476 121.031 88.3257 123.687 87.1434C126.354 85.9663 128.406 84.7632 129.854 83.5392C131.297 82.3049 132.193 81.4976 132.542 81.1226Z" fill="black"/>
<path d="M153.458 84.4351C152.083 85.7997 150.468 86.9663 148.625 87.9351C146.791 88.8934 145.255 89.5288 144.02 89.8309C142.781 90.1226 141.505 90.2892 140.187 90.3309C138.088 90.4299 136.156 90.1434 134.395 89.4767C131.52 88.3101 130.52 86.0809 131.395 82.7892C132.229 79.9559 133.921 77.7424 136.479 76.1434C139.031 74.5497 141.666 73.7788 144.375 73.8309C144.375 73.8309 144.401 73.8309 144.458 73.8309C145.135 73.7788 145.791 73.8205 146.416 73.9559C147.458 74.3465 148.125 74.9715 148.416 75.8309C148.708 76.6799 148.52 77.633 147.854 78.6851C146.322 80.9924 144.25 82.2788 141.625 82.5392C139.885 82.7059 138.208 82.6226 136.583 82.2892C136.276 82.2476 136.005 82.3413 135.77 82.5601C135.531 82.7684 135.385 83.0288 135.333 83.3309C134.859 85.3726 135.489 86.6851 137.229 87.2684C139.364 88.008 141.593 88.008 143.916 87.2684C146.583 86.4351 149.114 84.8674 151.52 82.5601C153.937 80.2424 155.322 79.159 155.687 79.3101C156.062 79.4663 156.177 79.909 156.041 80.6434C155.708 81.8101 154.843 83.0757 153.458 84.4351ZM138.229 78.6851C138.088 78.8517 137.984 79.0392 137.916 79.2476C137.859 79.4455 137.942 79.6226 138.166 79.7892C139 80.2632 139.901 80.4351 140.875 80.3101C141.843 80.1851 142.671 79.8205 143.354 79.2059C144.031 78.5965 144.322 77.8517 144.229 76.9767C144.156 76.659 143.989 76.4559 143.729 76.3726C143.463 76.2892 143.208 76.2788 142.958 76.3309C141.192 76.6382 139.614 77.4247 138.229 78.6851Z" fill="black"/>
<path d="M182.194 80.3309C182.569 80.8049 182.09 81.6747 180.757 82.9351C179.423 84.2007 178.007 85.2632 176.507 86.1226C175.007 86.9872 173.267 87.8413 171.298 88.6851C169.976 89.258 168.575 89.4507 167.09 89.2684C165.616 89.0757 164.882 88.1799 164.882 86.5809C164.882 84.9872 165.257 83.4038 166.007 81.8309C166.741 80.2059 166.903 79.3726 166.486 79.3309C166.069 79.2788 165.2 79.6642 163.882 80.4976C160.476 82.7476 157.309 85.3101 154.382 88.1851C153.59 89.1434 152.59 89.6747 151.382 89.7684C150.757 89.7684 150.278 89.5757 149.944 89.1851C149.601 88.784 149.548 88.3622 149.798 87.9142C151.897 84.0288 154.017 80.1851 156.173 76.3934C156.642 75.6017 157.361 75.1174 158.319 74.9351C158.72 74.8674 159.095 74.9924 159.444 75.3101C159.788 75.633 159.965 75.9924 159.965 76.3934C159.908 76.784 159.746 77.2372 159.486 77.7476C159.371 78.0705 159.262 78.3726 159.153 78.6642C159.038 78.9455 159.007 79.1799 159.048 79.3726C159.09 79.5549 159.236 79.6122 159.486 79.5392C159.845 79.3465 160.205 79.1434 160.569 78.9351C161.47 78.409 162.34 77.909 163.173 77.4351C163.908 77.008 164.679 76.6226 165.486 76.2892C166.304 75.9559 167.153 75.7267 168.028 75.6017C169.455 75.508 170.47 75.8309 171.069 76.5809C171.663 77.3205 171.741 78.3413 171.298 79.6434C170.809 80.8413 170.309 82.0184 169.798 83.1851C169.142 84.284 169.033 85.1174 169.465 85.6851C169.892 86.258 171.887 85.6017 175.444 83.7267L178.111 82.1434C180.637 80.534 181.996 79.9299 182.194 80.3309Z" fill="black"/>
<path d="M202.41 80.8933C199.212 84.659 196.087 87.435 193.035 89.2267C189.978 91.0183 186.702 91.6121 183.202 90.9975C179.718 90.3881 178.28 88.0496 178.889 83.9767C179.322 81.9246 179.905 79.9246 180.639 77.9767C182.483 73.4246 184.348 68.8933 186.223 64.3933C186.848 62.7683 187.499 61.1329 188.181 59.4767C188.358 59.1329 188.52 58.7788 188.66 58.4142C188.921 57.8204 189.186 57.2163 189.452 56.6017C189.827 55.5496 189.4 54.9975 188.181 54.9558C187.499 54.9558 186.827 54.9558 186.16 54.9558C185.837 54.9558 185.494 54.9558 185.119 54.9558C184.754 54.9975 184.389 55.0392 184.014 55.0808C183.389 55.1381 182.77 55.1642 182.16 55.1642C181.561 55.1642 180.999 55.0131 180.473 54.7058C180.332 54.6538 180.223 54.56 180.139 54.435C180.056 54.2996 180.014 54.1433 180.014 53.9767C180.056 53.8829 180.124 53.7683 180.223 53.6433C180.332 53.5183 180.473 53.4298 180.639 53.3725C181.166 53.1642 181.712 53.0131 182.285 52.9142C183.77 52.8465 185.233 52.784 186.681 52.7267C187.264 52.7267 187.764 52.7267 188.181 52.7267C189.139 52.7267 189.848 52.6954 190.306 52.6225C190.775 52.5548 191.15 52.3048 191.431 51.8725C191.723 51.4454 192.061 50.7892 192.452 49.9142C192.66 49.4298 192.916 48.9038 193.223 48.3308C194.014 46.6642 194.806 44.9663 195.598 43.2267C195.942 42.435 196.311 41.6746 196.702 40.935C197.004 40.2006 197.494 39.6329 198.16 39.2267C198.811 38.909 199.374 38.9298 199.848 39.2892C199.983 39.3881 200.098 39.5496 200.181 39.7683C200.264 39.9767 200.306 40.1642 200.306 40.3308C200.306 41.2631 200.067 42.1798 199.598 43.0808C199.499 43.2788 199.389 43.5079 199.264 43.7683C198.957 44.6173 198.624 45.4871 198.264 46.3725C197.582 47.9871 196.931 49.6381 196.306 51.3308C196.139 51.6538 196.129 51.9298 196.285 52.1642C196.436 52.4038 196.671 52.5183 196.994 52.5183C198.671 52.56 200.327 52.5808 201.952 52.5808C202.785 52.5808 203.619 52.5808 204.452 52.5808C207.077 52.6381 208.124 53.0131 207.598 53.7058C207.233 54.1121 206.848 54.3413 206.431 54.3933C206.014 54.4506 205.598 54.4454 205.181 54.3725C204.916 54.3725 204.65 54.3725 204.389 54.3725C201.723 54.5392 199.077 54.6538 196.452 54.7058C195.228 54.7058 194.416 55.2475 194.014 56.3308C193.582 57.3881 193.166 58.435 192.764 59.4767C192.166 60.8673 191.603 62.2163 191.077 63.5183C190.561 64.7683 190.041 66.0288 189.514 67.2892C188.15 70.4715 186.837 73.6746 185.577 76.8933C184.796 78.9923 184.181 81.1381 183.723 83.3308C182.723 87.3048 184.254 88.8308 188.327 87.9142C192.337 86.9558 196.535 84.0704 200.91 79.2475C202.827 78.0392 203.327 78.5913 202.41 80.8933Z" fill="black"/>
</g>
</svg>
