<svg width="316" height="132" viewBox="0 0 316 132" fill="none" xmlns="http://www.w3.org/2000/svg">
<g filter="url(#filter0_d_4_34)">
<mask id="path-1-outside-1_4_34" maskUnits="userSpaceOnUse" x="50" y="50.5" width="216" height="32" fill="black">
<rect fill="white" x="50" y="50.5" width="216" height="32"/>
<path d="M60.944 79.86C59.312 79.86 57.884 79.56 56.66 78.96C55.46 78.336 54.524 77.448 53.852 76.296C53.204 75.12 52.88 73.752 52.88 72.192V60.528C52.88 58.944 53.204 57.576 53.852 56.424C54.524 55.272 55.46 54.396 56.66 53.796C57.884 53.172 59.312 52.86 60.944 52.86C62.576 52.86 63.992 53.172 65.192 53.796C66.392 54.42 67.316 55.308 67.964 56.46C68.636 57.588 68.972 58.944 68.972 60.528H65.084C65.084 59.16 64.724 58.116 64.004 57.396C63.284 56.676 62.264 56.316 60.944 56.316C59.624 56.316 58.592 56.676 57.848 57.396C57.128 58.116 56.768 59.148 56.768 60.492V72.192C56.768 73.536 57.128 74.58 57.848 75.324C58.592 76.044 59.624 76.404 60.944 76.404C62.264 76.404 63.284 76.044 64.004 75.324C64.724 74.58 65.084 73.536 65.084 72.192H68.972C68.972 73.752 68.636 75.108 67.964 76.26C67.316 77.412 66.392 78.3 65.192 78.924C63.992 79.548 62.576 79.86 60.944 79.86ZM82.3859 79.86C80.7539 79.86 79.3379 79.56 78.1379 78.96C76.9619 78.336 76.0499 77.448 75.4019 76.296C74.7779 75.12 74.4659 73.752 74.4659 72.192V60.528C74.4659 58.944 74.7779 57.576 75.4019 56.424C76.0499 55.272 76.9619 54.396 78.1379 53.796C79.3379 53.172 80.7539 52.86 82.3859 52.86C84.0179 52.86 85.4219 53.172 86.5979 53.796C87.7979 54.396 88.7099 55.272 89.3339 56.424C89.9819 57.576 90.3059 58.932 90.3059 60.492V72.192C90.3059 73.752 89.9819 75.12 89.3339 76.296C88.7099 77.448 87.7979 78.336 86.5979 78.96C85.4219 79.56 84.0179 79.86 82.3859 79.86ZM82.3859 76.404C83.7059 76.404 84.7019 76.044 85.3739 75.324C86.0699 74.58 86.4179 73.536 86.4179 72.192V60.528C86.4179 59.16 86.0699 58.116 85.3739 57.396C84.7019 56.676 83.7059 56.316 82.3859 56.316C81.0899 56.316 80.0939 56.676 79.3979 57.396C78.7019 58.116 78.3539 59.16 78.3539 60.528V72.192C78.3539 73.536 78.7019 74.58 79.3979 75.324C80.0939 76.044 81.0899 76.404 82.3859 76.404ZM95.5479 79.5V53.22H100.336L102.964 61.644C103.228 62.436 103.456 63.204 103.648 63.948C103.84 64.668 103.972 65.208 104.044 65.568C104.14 65.208 104.272 64.668 104.44 63.948C104.632 63.204 104.848 62.436 105.088 61.644L107.608 53.22H112.396V79.5H108.724V70.644C108.724 69.516 108.748 68.268 108.796 66.9C108.868 65.508 108.964 64.116 109.084 62.724C109.204 61.308 109.324 59.964 109.444 58.692C109.564 57.396 109.672 56.268 109.768 55.308L105.88 68.088H102.136L98.1759 55.308C98.2959 56.244 98.4159 57.336 98.5359 58.584C98.6559 59.808 98.7639 61.116 98.8599 62.508C98.9559 63.9 99.0399 65.304 99.1119 66.72C99.1839 68.112 99.2199 69.42 99.2199 70.644V79.5H95.5479ZM117.782 79.5V53.22H126.386C128.09 53.22 129.566 53.544 130.814 54.192C132.086 54.84 133.058 55.764 133.73 56.964C134.426 58.14 134.774 59.532 134.774 61.14C134.774 62.724 134.426 64.116 133.73 65.316C133.034 66.516 132.062 67.44 130.814 68.088C129.566 68.736 128.09 69.06 126.386 69.06H121.67V79.5H117.782ZM121.67 65.568H126.386C127.73 65.568 128.798 65.172 129.59 64.38C130.406 63.564 130.814 62.484 130.814 61.14C130.814 59.772 130.406 58.692 129.59 57.9C128.798 57.108 127.73 56.712 126.386 56.712H121.67V65.568ZM139.728 79.5V53.22H155.172V56.676H143.544V64.128H153.912V67.548H143.544V76.044H155.172V79.5H139.728ZM160.846 79.5V53.22H165.742L173.41 75.072C173.362 74.376 173.302 73.548 173.23 72.588C173.158 71.628 173.098 70.632 173.05 69.6C173.026 68.568 173.014 67.632 173.014 66.792V53.22H176.614V79.5H171.718L164.086 57.648C164.134 58.272 164.182 59.052 164.23 59.988C164.302 60.924 164.35 61.896 164.374 62.904C164.422 63.912 164.446 64.848 164.446 65.712V79.5H160.846ZM182.504 79.5V53.22H189.848C191.576 53.22 193.076 53.556 194.348 54.228C195.62 54.876 196.604 55.8 197.3 57C198.02 58.2 198.38 59.616 198.38 61.248V71.436C198.38 73.044 198.02 74.46 197.3 75.684C196.604 76.908 195.62 77.856 194.348 78.528C193.076 79.176 191.576 79.5 189.848 79.5H182.504ZM186.392 75.972H189.848C191.288 75.972 192.416 75.576 193.232 74.784C194.072 73.968 194.492 72.852 194.492 71.436V61.248C194.492 59.856 194.072 58.764 193.232 57.972C192.416 57.156 191.288 56.748 189.848 56.748H186.392V75.972ZM204.63 79.5V76.044H209.922V56.676H204.63V53.22H219.174V56.676H213.882V76.044H219.174V79.5H204.63ZM233.488 79.86C230.968 79.86 229.024 79.176 227.656 77.808C226.288 76.416 225.604 74.532 225.604 72.156V53.22H229.492V72.156C229.492 73.476 229.816 74.52 230.464 75.288C231.136 76.056 232.144 76.44 233.488 76.44C234.808 76.44 235.804 76.056 236.476 75.288C237.148 74.52 237.484 73.476 237.484 72.156V53.22H241.372V72.156C241.372 74.532 240.688 76.416 239.32 77.808C237.952 79.176 236.008 79.86 233.488 79.86ZM246.649 79.5V53.22H251.437L254.065 61.644C254.329 62.436 254.557 63.204 254.749 63.948C254.941 64.668 255.073 65.208 255.145 65.568C255.241 65.208 255.373 64.668 255.541 63.948C255.733 63.204 255.949 62.436 256.189 61.644L258.709 53.22H263.497V79.5H259.825V70.644C259.825 69.516 259.849 68.268 259.897 66.9C259.969 65.508 260.065 64.116 260.185 62.724C260.305 61.308 260.425 59.964 260.545 58.692C260.665 57.396 260.773 56.268 260.869 55.308L256.981 68.088H253.237L249.277 55.308C249.397 56.244 249.517 57.336 249.637 58.584C249.757 59.808 249.865 61.116 249.961 62.508C250.057 63.9 250.141 65.304 250.213 66.72C250.285 68.112 250.321 69.42 250.321 70.644V79.5H246.649Z"/>
</mask>
<path d="M60.944 79.86C59.312 79.86 57.884 79.56 56.66 78.96C55.46 78.336 54.524 77.448 53.852 76.296C53.204 75.12 52.88 73.752 52.88 72.192V60.528C52.88 58.944 53.204 57.576 53.852 56.424C54.524 55.272 55.46 54.396 56.66 53.796C57.884 53.172 59.312 52.86 60.944 52.86C62.576 52.86 63.992 53.172 65.192 53.796C66.392 54.42 67.316 55.308 67.964 56.46C68.636 57.588 68.972 58.944 68.972 60.528H65.084C65.084 59.16 64.724 58.116 64.004 57.396C63.284 56.676 62.264 56.316 60.944 56.316C59.624 56.316 58.592 56.676 57.848 57.396C57.128 58.116 56.768 59.148 56.768 60.492V72.192C56.768 73.536 57.128 74.58 57.848 75.324C58.592 76.044 59.624 76.404 60.944 76.404C62.264 76.404 63.284 76.044 64.004 75.324C64.724 74.58 65.084 73.536 65.084 72.192H68.972C68.972 73.752 68.636 75.108 67.964 76.26C67.316 77.412 66.392 78.3 65.192 78.924C63.992 79.548 62.576 79.86 60.944 79.86ZM82.3859 79.86C80.7539 79.86 79.3379 79.56 78.1379 78.96C76.9619 78.336 76.0499 77.448 75.4019 76.296C74.7779 75.12 74.4659 73.752 74.4659 72.192V60.528C74.4659 58.944 74.7779 57.576 75.4019 56.424C76.0499 55.272 76.9619 54.396 78.1379 53.796C79.3379 53.172 80.7539 52.86 82.3859 52.86C84.0179 52.86 85.4219 53.172 86.5979 53.796C87.7979 54.396 88.7099 55.272 89.3339 56.424C89.9819 57.576 90.3059 58.932 90.3059 60.492V72.192C90.3059 73.752 89.9819 75.12 89.3339 76.296C88.7099 77.448 87.7979 78.336 86.5979 78.96C85.4219 79.56 84.0179 79.86 82.3859 79.86ZM82.3859 76.404C83.7059 76.404 84.7019 76.044 85.3739 75.324C86.0699 74.58 86.4179 73.536 86.4179 72.192V60.528C86.4179 59.16 86.0699 58.116 85.3739 57.396C84.7019 56.676 83.7059 56.316 82.3859 56.316C81.0899 56.316 80.0939 56.676 79.3979 57.396C78.7019 58.116 78.3539 59.16 78.3539 60.528V72.192C78.3539 73.536 78.7019 74.58 79.3979 75.324C80.0939 76.044 81.0899 76.404 82.3859 76.404ZM95.5479 79.5V53.22H100.336L102.964 61.644C103.228 62.436 103.456 63.204 103.648 63.948C103.84 64.668 103.972 65.208 104.044 65.568C104.14 65.208 104.272 64.668 104.44 63.948C104.632 63.204 104.848 62.436 105.088 61.644L107.608 53.22H112.396V79.5H108.724V70.644C108.724 69.516 108.748 68.268 108.796 66.9C108.868 65.508 108.964 64.116 109.084 62.724C109.204 61.308 109.324 59.964 109.444 58.692C109.564 57.396 109.672 56.268 109.768 55.308L105.88 68.088H102.136L98.1759 55.308C98.2959 56.244 98.4159 57.336 98.5359 58.584C98.6559 59.808 98.7639 61.116 98.8599 62.508C98.9559 63.9 99.0399 65.304 99.1119 66.72C99.1839 68.112 99.2199 69.42 99.2199 70.644V79.5H95.5479ZM117.782 79.5V53.22H126.386C128.09 53.22 129.566 53.544 130.814 54.192C132.086 54.84 133.058 55.764 133.73 56.964C134.426 58.14 134.774 59.532 134.774 61.14C134.774 62.724 134.426 64.116 133.73 65.316C133.034 66.516 132.062 67.44 130.814 68.088C129.566 68.736 128.09 69.06 126.386 69.06H121.67V79.5H117.782ZM121.67 65.568H126.386C127.73 65.568 128.798 65.172 129.59 64.38C130.406 63.564 130.814 62.484 130.814 61.14C130.814 59.772 130.406 58.692 129.59 57.9C128.798 57.108 127.73 56.712 126.386 56.712H121.67V65.568ZM139.728 79.5V53.22H155.172V56.676H143.544V64.128H153.912V67.548H143.544V76.044H155.172V79.5H139.728ZM160.846 79.5V53.22H165.742L173.41 75.072C173.362 74.376 173.302 73.548 173.23 72.588C173.158 71.628 173.098 70.632 173.05 69.6C173.026 68.568 173.014 67.632 173.014 66.792V53.22H176.614V79.5H171.718L164.086 57.648C164.134 58.272 164.182 59.052 164.23 59.988C164.302 60.924 164.35 61.896 164.374 62.904C164.422 63.912 164.446 64.848 164.446 65.712V79.5H160.846ZM182.504 79.5V53.22H189.848C191.576 53.22 193.076 53.556 194.348 54.228C195.62 54.876 196.604 55.8 197.3 57C198.02 58.2 198.38 59.616 198.38 61.248V71.436C198.38 73.044 198.02 74.46 197.3 75.684C196.604 76.908 195.62 77.856 194.348 78.528C193.076 79.176 191.576 79.5 189.848 79.5H182.504ZM186.392 75.972H189.848C191.288 75.972 192.416 75.576 193.232 74.784C194.072 73.968 194.492 72.852 194.492 71.436V61.248C194.492 59.856 194.072 58.764 193.232 57.972C192.416 57.156 191.288 56.748 189.848 56.748H186.392V75.972ZM204.63 79.5V76.044H209.922V56.676H204.63V53.22H219.174V56.676H213.882V76.044H219.174V79.5H204.63ZM233.488 79.86C230.968 79.86 229.024 79.176 227.656 77.808C226.288 76.416 225.604 74.532 225.604 72.156V53.22H229.492V72.156C229.492 73.476 229.816 74.52 230.464 75.288C231.136 76.056 232.144 76.44 233.488 76.44C234.808 76.44 235.804 76.056 236.476 75.288C237.148 74.52 237.484 73.476 237.484 72.156V53.22H241.372V72.156C241.372 74.532 240.688 76.416 239.32 77.808C237.952 79.176 236.008 79.86 233.488 79.86ZM246.649 79.5V53.22H251.437L254.065 61.644C254.329 62.436 254.557 63.204 254.749 63.948C254.941 64.668 255.073 65.208 255.145 65.568C255.241 65.208 255.373 64.668 255.541 63.948C255.733 63.204 255.949 62.436 256.189 61.644L258.709 53.22H263.497V79.5H259.825V70.644C259.825 69.516 259.849 68.268 259.897 66.9C259.969 65.508 260.065 64.116 260.185 62.724C260.305 61.308 260.425 59.964 260.545 58.692C260.665 57.396 260.773 56.268 260.869 55.308L256.981 68.088H253.237L249.277 55.308C249.397 56.244 249.517 57.336 249.637 58.584C249.757 59.808 249.865 61.116 249.961 62.508C250.057 63.9 250.141 65.304 250.213 66.72C250.285 68.112 250.321 69.42 250.321 70.644V79.5H246.649Z" fill="white"/>
<path d="M56.66 78.96L55.7373 80.7344L55.7584 80.7454L55.7797 80.7558L56.66 78.96ZM53.852 76.296L52.1003 77.2612L52.1121 77.2826L52.1244 77.3037L53.852 76.296ZM53.852 56.424L52.1244 55.4163L52.1165 55.4298L52.1088 55.4435L53.852 56.424ZM56.66 53.796L57.5544 55.5849L57.5614 55.5814L57.5684 55.5778L56.66 53.796ZM65.192 53.796L66.1147 52.0216L66.1147 52.0216L65.192 53.796ZM67.964 56.46L66.2208 57.4405L66.2331 57.4622L66.2458 57.4836L67.964 56.46ZM68.972 60.528V62.528H70.972V60.528H68.972ZM65.084 60.528H63.084V62.528H65.084V60.528ZM64.004 57.396L62.5898 58.8102L62.5898 58.8102L64.004 57.396ZM57.848 57.396L56.4572 55.9588L56.4454 55.9702L56.4338 55.9818L57.848 57.396ZM57.848 75.324L56.4108 76.7148L56.4336 76.7384L56.4572 76.7612L57.848 75.324ZM64.004 75.324L65.4182 76.7382L65.4298 76.7266L65.4412 76.7148L64.004 75.324ZM65.084 72.192V70.192H63.084V72.192H65.084ZM68.972 72.192H70.972V70.192H68.972V72.192ZM67.964 76.26L66.2364 75.2523L66.2285 75.2658L66.2208 75.2795L67.964 76.26ZM65.192 78.924L66.1147 80.6984L65.192 78.924ZM60.944 77.86C59.5576 77.86 58.4414 77.6059 57.5403 77.1642L55.7797 80.7558C57.3266 81.5141 59.0664 81.86 60.944 81.86V77.86ZM57.5827 77.1856C56.713 76.7333 56.0583 76.1089 55.5796 75.2883L52.1244 77.3037C52.9897 78.7871 54.207 79.9387 55.7373 80.7344L57.5827 77.1856ZM55.6037 75.3308C55.1432 74.4951 54.88 73.4695 54.88 72.192H50.88C50.88 74.0345 51.2648 75.7449 52.1003 77.2612L55.6037 75.3308ZM54.88 72.192V60.528H50.88V72.192H54.88ZM54.88 60.528C54.88 59.2194 55.146 58.2029 55.5952 57.4045L52.1088 55.4435C51.262 56.9491 50.88 58.6686 50.88 60.528H54.88ZM55.5796 57.4317C56.0544 56.6177 56.6999 56.0121 57.5544 55.5849L55.7656 52.0071C54.2201 52.7799 52.9936 53.9263 52.1244 55.4163L55.5796 57.4317ZM57.5684 55.5778C58.4628 55.1218 59.5688 54.86 60.944 54.86V50.86C59.0552 50.86 57.3052 51.2222 55.7516 52.0142L57.5684 55.5778ZM60.944 54.86C62.3205 54.86 63.4074 55.1223 64.2693 55.5704L66.1147 52.0216C64.5766 51.2217 62.8315 50.86 60.944 50.86V54.86ZM64.2693 55.5704C65.133 56.0196 65.768 56.6355 66.2208 57.4405L69.7072 55.4795C68.864 53.9805 67.651 52.8204 66.1147 52.0216L64.2693 55.5704ZM66.2458 57.4836C66.6986 58.2437 66.972 59.2298 66.972 60.528H70.972C70.972 58.6582 70.5734 56.9323 69.6822 55.4364L66.2458 57.4836ZM68.972 58.528H65.084V62.528H68.972V58.528ZM67.084 60.528C67.084 58.8173 66.6279 57.1915 65.4182 55.9818L62.5898 58.8102C62.8201 59.0405 63.084 59.5027 63.084 60.528H67.084ZM65.4182 55.9818C64.2212 54.7848 62.6304 54.316 60.944 54.316V58.316C61.8976 58.316 62.3468 58.5672 62.5898 58.8102L65.4182 55.9818ZM60.944 54.316C59.2539 54.316 57.669 54.786 56.4572 55.9588L59.2388 58.8332C59.515 58.566 59.9941 58.316 60.944 58.316V54.316ZM56.4338 55.9818C55.2303 57.1852 54.768 58.7935 54.768 60.492H58.768C58.768 59.5025 59.0257 59.0468 59.2622 58.8102L56.4338 55.9818ZM54.768 60.492V72.192H58.768V60.492H54.768ZM54.768 72.192C54.768 73.8945 55.2317 75.4965 56.4108 76.7148L59.2852 73.9332C59.0243 73.6635 58.768 73.1775 58.768 72.192H54.768ZM56.4572 76.7612C57.669 77.934 59.2539 78.404 60.944 78.404V74.404C59.9941 74.404 59.515 74.154 59.2388 73.8868L56.4572 76.7612ZM60.944 78.404C62.6304 78.404 64.2212 77.9352 65.4182 76.7382L62.5898 73.9098C62.3468 74.1528 61.8976 74.404 60.944 74.404V78.404ZM65.4412 76.7148C66.6203 75.4965 67.084 73.8945 67.084 72.192H63.084C63.084 73.1775 62.8277 73.6635 62.5668 73.9332L65.4412 76.7148ZM65.084 74.192H68.972V70.192H65.084V74.192ZM66.972 72.192C66.972 73.4586 66.7017 74.4546 66.2364 75.2523L69.6916 77.2677C70.5703 75.7614 70.972 74.0454 70.972 72.192H66.972ZM66.2208 75.2795C65.768 76.0845 65.133 76.7004 64.2693 77.1496L66.1147 80.6984C67.651 79.8996 68.864 78.7395 69.7072 77.2405L66.2208 75.2795ZM64.2693 77.1496C63.4074 77.5977 62.3205 77.86 60.944 77.86V81.86C62.8315 81.86 64.5766 81.4983 66.1147 80.6984L64.2693 77.1496ZM78.1379 78.96L77.2005 80.7267L77.2219 80.738L77.2435 80.7489L78.1379 78.96ZM75.4019 76.296L73.6352 77.2334L73.6467 77.2551L73.6588 77.2765L75.4019 76.296ZM75.4019 56.424L73.6588 55.4435L73.651 55.4574L73.6434 55.4714L75.4019 56.424ZM78.1379 53.796L79.0469 55.5775L79.0538 55.574L79.0606 55.5704L78.1379 53.796ZM86.5979 53.796L85.6605 55.5627L85.6819 55.574L85.7035 55.5849L86.5979 53.796ZM89.3339 56.424L87.5754 57.3766L87.583 57.3906L87.5908 57.4045L89.3339 56.424ZM89.3339 76.296L87.5823 75.3308L87.5788 75.3371L87.5754 75.3434L89.3339 76.296ZM86.5979 78.96L87.5069 80.7415L87.5138 80.738L87.5206 80.7344L86.5979 78.96ZM85.3739 75.324L83.9134 73.9577L83.9118 73.9594L85.3739 75.324ZM85.3739 57.396L83.9118 58.7606L83.9238 58.7734L83.936 58.786L85.3739 57.396ZM79.3979 57.396L80.8359 58.786V58.786L79.3979 57.396ZM79.3979 75.324L77.9374 76.6903L77.9486 76.7023L77.96 76.714L79.3979 75.324ZM82.3859 77.86C80.9982 77.86 79.9009 77.6054 79.0324 77.1711L77.2435 80.7489C78.7749 81.5146 80.5097 81.86 82.3859 81.86V77.86ZM79.0754 77.1933C78.2351 76.7474 77.6039 76.1311 77.1451 75.3155L73.6588 77.2765C74.496 78.7649 75.6888 79.9246 77.2005 80.7267L79.0754 77.1933ZM77.1686 75.3586C76.7222 74.5172 76.4659 73.4814 76.4659 72.192H72.4659C72.4659 74.0226 72.8337 75.7228 73.6352 77.2334L77.1686 75.3586ZM76.4659 72.192V60.528H72.4659V72.192H76.4659ZM76.4659 60.528C76.4659 59.2076 76.7249 58.1808 77.1605 57.3766L73.6434 55.4714C72.831 56.9712 72.4659 58.6804 72.4659 60.528H76.4659ZM77.1451 57.4045C77.6002 56.5954 78.2222 55.9983 79.0469 55.5775L77.229 52.0145C75.7017 52.7937 74.4997 53.9486 73.6588 55.4435L77.1451 57.4045ZM79.0606 55.5704C79.9225 55.1223 81.0094 54.86 82.3859 54.86V50.86C80.4985 50.86 78.7534 51.2217 77.2152 52.0216L79.0606 55.5704ZM82.3859 54.86C83.764 54.86 84.8314 55.1228 85.6605 55.5627L87.5354 52.0293C86.0125 51.2212 84.2719 50.86 82.3859 50.86V54.86ZM85.7035 55.5849C86.5459 56.0061 87.1518 56.5945 87.5754 57.3766L91.0925 55.4714C90.2681 53.9495 89.05 52.7859 87.4924 52.0071L85.7035 55.5849ZM87.5908 57.4045C88.0423 58.2073 88.3059 59.2133 88.3059 60.492H92.3059C92.3059 58.6507 91.9215 56.9447 91.0771 55.4435L87.5908 57.4045ZM88.3059 60.492V72.192H92.3059V60.492H88.3059ZM88.3059 72.192C88.3059 73.4695 88.0427 74.4951 87.5823 75.3308L91.0856 77.2612C91.9211 75.7449 92.3059 74.0345 92.3059 72.192H88.3059ZM87.5754 75.3434C87.1481 76.1323 86.5329 76.7396 85.6752 77.1856L87.5206 80.7344C89.0629 79.9324 90.2718 78.7637 91.0925 77.2486L87.5754 75.3434ZM85.689 77.1785C84.8532 77.6049 83.7752 77.86 82.3859 77.86V81.86C84.2607 81.86 85.9907 81.5151 87.5069 80.7415L85.689 77.1785ZM82.3859 78.404C84.0636 78.404 85.6698 77.9382 86.836 76.6886L83.9118 73.9594C83.7341 74.1498 83.3482 74.404 82.3859 74.404V78.404ZM86.8345 76.6903C87.9761 75.47 88.4179 73.8771 88.4179 72.192H84.4179C84.4179 73.1949 84.1638 73.69 83.9134 73.9577L86.8345 76.6903ZM88.4179 72.192V60.528H84.4179V72.192H88.4179ZM88.4179 60.528C88.4179 58.8348 87.9836 57.218 86.8119 56.006L83.936 58.786C84.1563 59.014 84.4179 59.4852 84.4179 60.528H88.4179ZM86.836 56.0314C85.6698 54.7818 84.0636 54.316 82.3859 54.316V58.316C83.3482 58.316 83.7341 58.5702 83.9118 58.7606L86.836 56.0314ZM82.3859 54.316C80.7151 54.316 79.1351 54.7903 77.96 56.006L80.8359 58.786C81.0527 58.5617 81.4647 58.316 82.3859 58.316V54.316ZM77.96 56.006C76.7883 57.218 76.3539 58.8348 76.3539 60.528H80.3539C80.3539 59.4852 80.6156 59.014 80.8359 58.786L77.96 56.006ZM76.3539 60.528V72.192H80.3539V60.528H76.3539ZM76.3539 72.192C76.3539 73.8771 76.7958 75.47 77.9374 76.6903L80.8585 73.9577C80.6081 73.69 80.3539 73.1949 80.3539 72.192H76.3539ZM77.96 76.714C79.1351 77.9297 80.7151 78.404 82.3859 78.404V74.404C81.4647 74.404 81.0527 74.1583 80.8359 73.934L77.96 76.714ZM95.5479 79.5H93.5479V81.5H95.5479V79.5ZM95.5479 53.22V51.22H93.5479V53.22H95.5479ZM100.336 53.22L102.245 52.6244L101.807 51.22H100.336V53.22ZM102.964 61.644L101.055 62.2396L101.06 62.2581L101.067 62.2765L102.964 61.644ZM103.648 63.948L101.711 64.4478L101.713 64.4555L101.715 64.4633L103.648 63.948ZM104.044 65.568L102.083 65.9602L105.976 66.0833L104.044 65.568ZM104.44 63.948L102.503 63.4482L102.497 63.4708L102.492 63.4935L104.44 63.948ZM105.088 61.644L107.002 62.224L107.004 62.2172L105.088 61.644ZM107.608 53.22V51.22H106.119L105.692 52.6468L107.608 53.22ZM112.396 53.22H114.396V51.22H112.396V53.22ZM112.396 79.5V81.5H114.396V79.5H112.396ZM108.724 79.5H106.724V81.5H108.724V79.5ZM108.796 66.9L106.799 66.7967L106.798 66.8133L106.797 66.8299L108.796 66.9ZM109.084 62.724L111.076 62.8958L111.077 62.8929L109.084 62.724ZM109.444 58.692L111.435 58.8798L111.435 58.8764L109.444 58.692ZM109.768 55.308L111.758 55.507L107.854 54.7259L109.768 55.308ZM105.88 68.088V70.088H107.362L107.793 68.6701L105.88 68.088ZM102.136 68.088L100.225 68.68L100.662 70.088H102.136V68.088ZM98.1759 55.308L100.086 54.716L96.1921 55.5623L98.1759 55.308ZM98.5359 58.584L96.5451 58.7754L96.5454 58.7791L98.5359 58.584ZM99.1119 66.72L97.1145 66.8216L97.1145 66.8233L99.1119 66.72ZM99.2199 79.5V81.5H101.22V79.5H99.2199ZM97.5479 79.5V53.22H93.5479V79.5H97.5479ZM95.5479 55.22H100.336V51.22H95.5479V55.22ZM98.4266 53.8156L101.055 62.2396L104.873 61.0484L102.245 52.6244L98.4266 53.8156ZM101.067 62.2765C101.317 63.0284 101.532 63.7521 101.711 64.4478L105.584 63.4482C105.38 62.6559 105.139 61.8436 104.861 61.0115L101.067 62.2765ZM101.715 64.4633C101.905 65.175 102.024 65.6649 102.083 65.9602L106.005 65.1758C105.92 64.7511 105.775 64.161 105.58 63.4327L101.715 64.4633ZM105.976 66.0833C106.081 65.692 106.218 65.1272 106.388 64.4025L102.492 63.4935C102.325 64.2088 102.199 64.724 102.111 65.0527L105.976 66.0833ZM106.376 64.4478C106.561 63.7326 106.769 62.9914 107.002 62.224L103.174 61.064C102.926 61.8806 102.703 62.6754 102.503 63.4482L106.376 64.4478ZM107.004 62.2172L109.524 53.7932L105.692 52.6468L103.172 61.0708L107.004 62.2172ZM107.608 55.22H112.396V51.22H107.608V55.22ZM110.396 53.22V79.5H114.396V53.22H110.396ZM112.396 77.5H108.724V81.5H112.396V77.5ZM110.724 79.5V70.644H106.724V79.5H110.724ZM110.724 70.644C110.724 69.5437 110.747 68.3195 110.795 66.9701L106.797 66.8299C106.748 68.2165 106.724 69.4883 106.724 70.644H110.724ZM110.793 67.0033C110.864 65.6342 110.958 64.265 111.076 62.8958L107.091 62.5522C106.969 63.967 106.872 65.3818 106.799 66.7967L110.793 67.0033ZM111.077 62.8929C111.196 61.4825 111.316 60.1449 111.435 58.8798L107.453 58.5042C107.332 59.7831 107.211 61.1335 107.091 62.5551L111.077 62.8929ZM111.435 58.8764C111.555 57.5837 111.663 56.4608 111.758 55.507L107.778 55.109C107.681 56.0752 107.573 57.2083 107.452 58.5076L111.435 58.8764ZM107.854 54.7259L103.966 67.5059L107.793 68.6701L111.681 55.8901L107.854 54.7259ZM105.88 66.088H102.136V70.088H105.88V66.088ZM104.046 67.496L100.086 54.716L96.2655 55.9L100.225 68.68L104.046 67.496ZM96.1921 55.5623C96.3087 56.4719 96.4265 57.5421 96.5451 58.7754L100.527 58.3926C100.405 57.1299 100.283 56.0161 100.16 55.0537L96.1921 55.5623ZM96.5454 58.7791C96.6633 59.9816 96.7698 61.2703 96.8646 62.6456L100.855 62.3704C100.758 60.9617 100.648 59.6344 100.526 58.3889L96.5454 58.7791ZM96.8646 62.6456C96.9598 64.0254 97.0431 65.4174 97.1145 66.8216L101.109 66.6184C101.037 65.1906 100.952 63.7746 100.855 62.3704L96.8646 62.6456ZM97.1145 66.8233C97.185 68.1855 97.2199 69.4588 97.2199 70.644H101.22C101.22 69.3812 101.183 68.0385 101.109 66.6167L97.1145 66.8233ZM97.2199 70.644V79.5H101.22V70.644H97.2199ZM99.2199 77.5H95.5479V81.5H99.2199V77.5ZM117.782 79.5H115.782V81.5H117.782V79.5ZM117.782 53.22V51.22H115.782V53.22H117.782ZM130.814 54.192L129.892 55.967L129.899 55.9706L129.906 55.9741L130.814 54.192ZM133.73 56.964L131.985 57.9412L131.996 57.9621L132.009 57.9826L133.73 56.964ZM133.73 65.316L132 64.3126V64.3126L133.73 65.316ZM130.814 68.088L131.735 69.863L130.814 68.088ZM121.67 69.06V67.06H119.67V69.06H121.67ZM121.67 79.5V81.5H123.67V79.5H121.67ZM121.67 65.568H119.67V67.568H121.67V65.568ZM129.59 64.38L131.004 65.7942V65.7942L129.59 64.38ZM129.59 57.9L128.176 59.3142L128.186 59.3248L128.197 59.3352L129.59 57.9ZM121.67 56.712V54.712H119.67V56.712H121.67ZM119.782 79.5V53.22H115.782V79.5H119.782ZM117.782 55.22H126.386V51.22H117.782V55.22ZM126.386 55.22C127.836 55.22 128.983 55.495 129.892 55.967L131.735 52.417C130.149 51.593 128.343 51.22 126.386 51.22V55.22ZM129.906 55.9741C130.84 56.4497 131.514 57.1 131.985 57.9412L135.475 55.9868C134.602 54.428 133.332 53.2303 131.722 52.4099L129.906 55.9741ZM132.009 57.9826C132.492 58.7995 132.774 59.8265 132.774 61.14H136.774C136.774 59.2375 136.36 57.4805 135.451 55.9454L132.009 57.9826ZM132.774 61.14C132.774 62.4224 132.495 63.4586 132 64.3126L135.46 66.3194C136.357 64.7734 136.774 63.0256 136.774 61.14H132.774ZM132 64.3126C131.497 65.1791 130.808 65.8376 129.892 66.313L131.735 69.863C133.316 69.0424 134.57 67.8529 135.46 66.3194L132 64.3126ZM129.892 66.313C128.983 66.785 127.836 67.06 126.386 67.06V71.06C128.343 71.06 130.149 70.687 131.735 69.863L129.892 66.313ZM126.386 67.06H121.67V71.06H126.386V67.06ZM119.67 69.06V79.5H123.67V69.06H119.67ZM121.67 77.5H117.782V81.5H121.67V77.5ZM121.67 67.568H126.386V63.568H121.67V67.568ZM126.386 67.568C128.147 67.568 129.764 67.0346 131.004 65.7942L128.176 62.9658C127.832 63.3094 127.313 63.568 126.386 63.568V67.568ZM131.004 65.7942C132.257 64.5413 132.814 62.9201 132.814 61.14H128.814C128.814 62.0479 128.555 62.5867 128.176 62.9658L131.004 65.7942ZM132.814 61.14C132.814 59.3492 132.264 57.7084 130.983 56.4648L128.197 59.3352C128.548 59.6756 128.814 60.1948 128.814 61.14H132.814ZM131.004 56.4858C129.764 55.2454 128.147 54.712 126.386 54.712V58.712C127.313 58.712 127.832 58.9706 128.176 59.3142L131.004 56.4858ZM126.386 54.712H121.67V58.712H126.386V54.712ZM119.67 56.712V65.568H123.67V56.712H119.67ZM139.728 79.5H137.728V81.5H139.728V79.5ZM139.728 53.22V51.22H137.728V53.22H139.728ZM155.172 53.22H157.172V51.22H155.172V53.22ZM155.172 56.676V58.676H157.172V56.676H155.172ZM143.544 56.676V54.676H141.544V56.676H143.544ZM143.544 64.128H141.544V66.128H143.544V64.128ZM153.912 64.128H155.912V62.128H153.912V64.128ZM153.912 67.548V69.548H155.912V67.548H153.912ZM143.544 67.548V65.548H141.544V67.548H143.544ZM143.544 76.044H141.544V78.044H143.544V76.044ZM155.172 76.044H157.172V74.044H155.172V76.044ZM155.172 79.5V81.5H157.172V79.5H155.172ZM141.728 79.5V53.22H137.728V79.5H141.728ZM139.728 55.22H155.172V51.22H139.728V55.22ZM153.172 53.22V56.676H157.172V53.22H153.172ZM155.172 54.676H143.544V58.676H155.172V54.676ZM141.544 56.676V64.128H145.544V56.676H141.544ZM143.544 66.128H153.912V62.128H143.544V66.128ZM151.912 64.128V67.548H155.912V64.128H151.912ZM153.912 65.548H143.544V69.548H153.912V65.548ZM141.544 67.548V76.044H145.544V67.548H141.544ZM143.544 78.044H155.172V74.044H143.544V78.044ZM153.172 76.044V79.5H157.172V76.044H153.172ZM155.172 77.5H139.728V81.5H155.172V77.5ZM160.846 79.5H158.846V81.5H160.846V79.5ZM160.846 53.22V51.22H158.846V53.22H160.846ZM165.742 53.22L167.629 52.5578L167.159 51.22H165.742V53.22ZM173.41 75.072L171.523 75.7342L175.405 74.9344L173.41 75.072ZM173.23 72.588L171.235 72.7376V72.7376L173.23 72.588ZM173.05 69.6L171.05 69.6465L171.051 69.6697L171.052 69.6929L173.05 69.6ZM173.014 53.22V51.22H171.014V53.22H173.014ZM176.614 53.22H178.614V51.22H176.614V53.22ZM176.614 79.5V81.5H178.614V79.5H176.614ZM171.718 79.5L169.83 80.1595L170.298 81.5H171.718V79.5ZM164.086 57.648L165.974 56.9885L162.092 57.8014L164.086 57.648ZM164.23 59.988L162.232 60.0904L162.234 60.1159L162.236 60.1414L164.23 59.988ZM164.374 62.904L162.374 62.9516L162.375 62.9754L162.376 62.9991L164.374 62.904ZM164.446 79.5V81.5H166.446V79.5H164.446ZM162.846 79.5V53.22H158.846V79.5H162.846ZM160.846 55.22H165.742V51.22H160.846V55.22ZM163.855 53.8822L171.523 75.7342L175.297 74.4098L167.629 52.5578L163.855 53.8822ZM175.405 74.9344C175.357 74.2332 175.296 73.401 175.224 72.4384L171.235 72.7376C171.307 73.695 171.367 74.5188 171.414 75.2096L175.405 74.9344ZM175.224 72.4384C175.154 71.4986 175.095 70.5215 175.048 69.5071L171.052 69.6929C171.101 70.7425 171.162 71.7574 171.235 72.7376L175.224 72.4384ZM175.049 69.5535C175.025 68.5337 175.014 67.6135 175.014 66.792H171.014C171.014 67.6505 171.026 68.6023 171.05 69.6465L175.049 69.5535ZM175.014 66.792V53.22H171.014V66.792H175.014ZM173.014 55.22H176.614V51.22H173.014V55.22ZM174.614 53.22V79.5H178.614V53.22H174.614ZM176.614 77.5H171.718V81.5H176.614V77.5ZM173.606 78.8405L165.974 56.9885L162.198 58.3075L169.83 80.1595L173.606 78.8405ZM162.092 57.8014C162.138 58.4023 162.185 59.164 162.232 60.0904L166.227 59.8856C166.179 58.94 166.13 58.1417 166.08 57.4946L162.092 57.8014ZM162.236 60.1414C162.305 61.0397 162.351 61.9763 162.374 62.9516L166.373 62.8564C166.348 61.8157 166.299 60.8083 166.224 59.8346L162.236 60.1414ZM162.376 62.9991C162.423 63.9805 162.446 64.8845 162.446 65.712H166.446C166.446 64.8115 166.421 63.8435 166.371 62.8089L162.376 62.9991ZM162.446 65.712V79.5H166.446V65.712H162.446ZM164.446 77.5H160.846V81.5H164.446V77.5ZM182.504 79.5H180.504V81.5H182.504V79.5ZM182.504 53.22V51.22H180.504V53.22H182.504ZM194.348 54.228L193.413 55.9964L193.427 56.0033L193.44 56.0101L194.348 54.228ZM197.3 57L195.57 58.0034L195.577 58.0163L195.585 58.029L197.3 57ZM197.3 75.684L195.576 74.67L195.568 74.6826L195.561 74.6954L197.3 75.684ZM194.348 78.528L195.255 80.3101L195.269 80.3033L195.282 80.2964L194.348 78.528ZM186.392 75.972H184.392V77.972H186.392V75.972ZM193.232 74.784L194.625 76.2192L194.625 76.2186L193.232 74.784ZM193.232 57.972L191.817 59.3862L191.838 59.407L191.86 59.4272L193.232 57.972ZM186.392 56.748V54.748H184.392V56.748H186.392ZM184.504 79.5V53.22H180.504V79.5H184.504ZM182.504 55.22H189.848V51.22H182.504V55.22ZM189.848 55.22C191.315 55.22 192.482 55.5042 193.413 55.9964L195.282 52.4596C193.669 51.6078 191.836 51.22 189.848 51.22V55.22ZM193.44 56.0101C194.379 56.4885 195.073 57.1469 195.57 58.0034L199.03 55.9966C198.134 54.4531 196.86 53.2635 195.255 52.4459L193.44 56.0101ZM195.585 58.029C196.089 58.8697 196.38 59.9174 196.38 61.248H200.38C200.38 59.3146 199.95 57.5303 199.015 55.971L195.585 58.029ZM196.38 61.248V71.436H200.38V61.248H196.38ZM196.38 71.436C196.38 72.7356 196.092 73.7923 195.576 74.67L199.023 76.698C199.947 75.1277 200.38 73.3524 200.38 71.436H196.38ZM195.561 74.6954C195.058 75.5806 194.356 76.2615 193.413 76.7596L195.282 80.2964C196.883 79.4505 198.15 78.2354 199.038 76.6726L195.561 74.6954ZM193.44 76.7459C192.502 77.2236 191.326 77.5 189.848 77.5V81.5C191.826 81.5 193.649 81.1284 195.255 80.3101L193.44 76.7459ZM189.848 77.5H182.504V81.5H189.848V77.5ZM186.392 77.972H189.848V73.972H186.392V77.972ZM189.848 77.972C191.663 77.972 193.343 77.4632 194.625 76.2192L191.839 73.3488C191.488 73.6888 190.913 73.972 189.848 73.972V77.972ZM194.625 76.2186C195.932 74.9491 196.492 73.2712 196.492 71.436H192.492C192.492 72.4328 192.211 72.9869 191.838 73.3494L194.625 76.2186ZM196.492 71.436V61.248H192.492V71.436H196.492ZM196.492 61.248C196.492 59.4274 195.925 57.7631 194.604 56.5168L191.86 59.4272C192.218 59.7649 192.492 60.2846 192.492 61.248H196.492ZM194.646 56.5578C193.367 55.2787 191.679 54.748 189.848 54.748V58.748C190.896 58.748 191.464 59.0333 191.817 59.3862L194.646 56.5578ZM189.848 54.748H186.392V58.748H189.848V54.748ZM184.392 56.748V75.972H188.392V56.748H184.392ZM204.63 79.5H202.63V81.5H204.63V79.5ZM204.63 76.044V74.044H202.63V76.044H204.63ZM209.922 76.044V78.044H211.922V76.044H209.922ZM209.922 56.676H211.922V54.676H209.922V56.676ZM204.63 56.676H202.63V58.676H204.63V56.676ZM204.63 53.22V51.22H202.63V53.22H204.63ZM219.174 53.22H221.174V51.22H219.174V53.22ZM219.174 56.676V58.676H221.174V56.676H219.174ZM213.882 56.676V54.676H211.882V56.676H213.882ZM213.882 76.044H211.882V78.044H213.882V76.044ZM219.174 76.044H221.174V74.044H219.174V76.044ZM219.174 79.5V81.5H221.174V79.5H219.174ZM206.63 79.5V76.044H202.63V79.5H206.63ZM204.63 78.044H209.922V74.044H204.63V78.044ZM211.922 76.044V56.676H207.922V76.044H211.922ZM209.922 54.676H204.63V58.676H209.922V54.676ZM206.63 56.676V53.22H202.63V56.676H206.63ZM204.63 55.22H219.174V51.22H204.63V55.22ZM217.174 53.22V56.676H221.174V53.22H217.174ZM219.174 54.676H213.882V58.676H219.174V54.676ZM211.882 56.676V76.044H215.882V56.676H211.882ZM213.882 78.044H219.174V74.044H213.882V78.044ZM217.174 76.044V79.5H221.174V76.044H217.174ZM219.174 77.5H204.63V81.5H219.174V77.5ZM227.656 77.808L226.229 79.2099L226.235 79.2161L226.241 79.2222L227.656 77.808ZM225.604 53.22V51.22H223.604V53.22H225.604ZM229.492 53.22H231.492V51.22H229.492V53.22ZM230.464 75.288L228.935 76.5777L228.947 76.5915L228.958 76.605L230.464 75.288ZM236.475 75.288L234.97 73.971L236.475 75.288ZM237.484 53.22V51.22H235.484V53.22H237.484ZM241.372 53.22H243.372V51.22H241.372V53.22ZM239.32 77.808L240.734 79.2222L240.74 79.2161L240.746 79.2099L239.32 77.808ZM233.488 77.86C231.331 77.86 229.959 77.2831 229.07 76.3938L226.241 79.2222C228.088 81.0689 230.604 81.86 233.488 81.86V77.86ZM229.082 76.4061C228.159 75.4665 227.604 74.1287 227.604 72.156H223.604C223.604 74.9353 224.416 77.3655 226.229 79.2099L229.082 76.4061ZM227.604 72.156V53.22H223.604V72.156H227.604ZM225.604 55.22H229.492V51.22H225.604V55.22ZM227.492 53.22V72.156H231.492V53.22H227.492ZM227.492 72.156C227.492 73.7981 227.898 75.3488 228.935 76.5777L231.992 73.9983C231.733 73.6912 231.492 73.1539 231.492 72.156H227.492ZM228.958 76.605C230.121 77.9343 231.761 78.44 233.488 78.44V74.44C232.526 74.44 232.15 74.1777 231.969 73.971L228.958 76.605ZM233.488 78.44C235.204 78.44 236.824 77.9266 237.981 76.605L234.97 73.971C234.783 74.1854 234.411 74.44 233.488 74.44V78.44ZM237.981 76.605C239.056 75.376 239.484 73.8149 239.484 72.156H235.484C235.484 73.1371 235.239 73.664 234.97 73.971L237.981 76.605ZM239.484 72.156V53.22H235.484V72.156H239.484ZM237.484 55.22H241.372V51.22H237.484V55.22ZM239.372 53.22V72.156H243.372V53.22H239.372ZM239.372 72.156C239.372 74.1287 238.816 75.4665 237.893 76.4061L240.746 79.2099C242.559 77.3655 243.372 74.9353 243.372 72.156H239.372ZM237.905 76.3938C237.016 77.2831 235.644 77.86 233.488 77.86V81.86C236.371 81.86 238.887 81.0689 240.734 79.2222L237.905 76.3938ZM246.649 79.5H244.649V81.5H246.649V79.5ZM246.649 53.22V51.22H244.649V53.22H246.649ZM251.437 53.22L253.347 52.6244L252.909 51.22H251.437V53.22ZM254.065 61.644L252.156 62.2396L252.162 62.2581L252.168 62.2765L254.065 61.644ZM254.749 63.948L252.813 64.4478L252.815 64.4555L252.817 64.4633L254.749 63.948ZM255.145 65.568L253.184 65.9602L257.078 66.0833L255.145 65.568ZM255.541 63.948L253.605 63.4482L253.599 63.4708L253.594 63.4935L255.541 63.948ZM256.189 61.644L258.104 62.224L258.106 62.2172L256.189 61.644ZM258.709 53.22V51.22H257.22L256.793 52.6468L258.709 53.22ZM263.497 53.22H265.497V51.22H263.497V53.22ZM263.497 79.5V81.5H265.497V79.5H263.497ZM259.825 79.5H257.825V81.5H259.825V79.5ZM259.897 66.9L257.9 66.7967L257.899 66.8133L257.899 66.8299L259.897 66.9ZM260.185 62.724L262.178 62.8958L262.178 62.8929L260.185 62.724ZM260.545 58.692L262.537 58.8798L262.537 58.8764L260.545 58.692ZM260.869 55.308L262.86 55.507L258.956 54.7259L260.869 55.308ZM256.981 68.088V70.088H258.463L258.895 68.6701L256.981 68.088ZM253.237 68.088L251.327 68.68L251.763 70.088H253.237V68.088ZM249.277 55.308L251.188 54.716L247.294 55.5623L249.277 55.308ZM249.637 58.584L247.647 58.7754L247.647 58.7791L249.637 58.584ZM250.213 66.72L248.216 66.8216L248.216 66.8233L250.213 66.72ZM250.321 79.5V81.5H252.321V79.5H250.321ZM248.649 79.5V53.22H244.649V79.5H248.649ZM246.649 55.22H251.437V51.22H246.649V55.22ZM249.528 53.8156L252.156 62.2396L255.975 61.0484L253.347 52.6244L249.528 53.8156ZM252.168 62.2765C252.419 63.0284 252.633 63.7521 252.813 64.4478L256.686 63.4482C256.482 62.6559 256.24 61.8436 255.963 61.0115L252.168 62.2765ZM252.817 64.4633C253.007 65.175 253.125 65.6649 253.184 65.9602L257.107 65.1758C257.022 64.7511 256.876 64.161 256.682 63.4327L252.817 64.4633ZM257.078 66.0833C257.182 65.692 257.32 65.1272 257.489 64.4025L253.594 63.4935C253.427 64.2088 253.301 64.724 253.213 65.0527L257.078 66.0833ZM257.478 64.4478C257.663 63.7326 257.871 62.9914 258.103 62.224L254.275 61.064C254.028 61.8806 253.804 62.6754 253.605 63.4482L257.478 64.4478ZM258.106 62.2172L260.626 53.7932L256.793 52.6468L254.273 61.0708L258.106 62.2172ZM258.709 55.22H263.497V51.22H258.709V55.22ZM261.497 53.22V79.5H265.497V53.22H261.497ZM263.497 77.5H259.825V81.5H263.497V77.5ZM261.825 79.5V70.644H257.825V79.5H261.825ZM261.825 70.644C261.825 69.5437 261.849 68.3195 261.896 66.9701L257.899 66.8299C257.85 68.2165 257.825 69.4883 257.825 70.644H261.825ZM261.895 67.0033C261.966 65.6342 262.06 64.265 262.178 62.8958L258.193 62.5522C258.071 63.967 257.973 65.3818 257.9 66.7967L261.895 67.0033ZM262.178 62.8929C262.298 61.4825 262.417 60.1449 262.537 58.8798L258.554 58.5042C258.434 59.7831 258.313 61.1335 258.193 62.5551L262.178 62.8929ZM262.537 58.8764C262.657 57.5837 262.764 56.4608 262.86 55.507L258.879 55.109C258.783 56.0752 258.674 57.2083 258.554 58.5076L262.537 58.8764ZM258.956 54.7259L255.068 67.5059L258.895 68.6701L262.783 55.8901L258.956 54.7259ZM256.981 66.088H253.237V70.088H256.981V66.088ZM255.148 67.496L251.188 54.716L247.367 55.9L251.327 68.68L255.148 67.496ZM247.294 55.5623C247.41 56.4719 247.528 57.5421 247.647 58.7754L251.628 58.3926C251.507 57.1299 251.385 56.0161 251.261 55.0537L247.294 55.5623ZM247.647 58.7791C247.765 59.9816 247.871 61.2703 247.966 62.6456L251.957 62.3704C251.86 60.9617 251.75 59.6344 251.628 58.3889L247.647 58.7791ZM247.966 62.6456C248.061 64.0254 248.145 65.4174 248.216 66.8216L252.211 66.6184C252.138 65.1906 252.054 63.7746 251.957 62.3704L247.966 62.6456ZM248.216 66.8233C248.287 68.1855 248.321 69.4588 248.321 70.644H252.321C252.321 69.3812 252.284 68.0385 252.211 66.6167L248.216 66.8233ZM248.321 70.644V79.5H252.321V70.644H248.321ZM250.321 77.5H246.649V81.5H250.321V77.5Z" fill="#002CFF" mask="url(#path-1-outside-1_4_34)"/>
</g>
<defs>
<filter id="filter0_d_4_34" x="0.879997" y="0.86" width="314.617" height="131" filterUnits="userSpaceOnUse" color-interpolation-filters="sRGB">
<feFlood flood-opacity="0" result="BackgroundImageFix"/>
<feColorMatrix in="SourceAlpha" type="matrix" values="0 0 0 0 0 0 0 0 0 0 0 0 0 0 0 0 0 0 127 0" result="hardAlpha"/>
<feOffset/>
<feGaussianBlur stdDeviation="25"/>
<feComposite in2="hardAlpha" operator="out"/>
<feColorMatrix type="matrix" values="0 0 0 0 0 0 0 0 0 0.173913 0 0 0 0 1 0 0 0 1 0"/>
<feBlend mode="normal" in2="BackgroundImageFix" result="effect1_dropShadow_4_34"/>
<feBlend mode="normal" in="SourceGraphic" in2="effect1_dropShadow_4_34" result="shape"/>
</filter>
</defs>
</svg>
