<svg width="507" height="173" viewBox="0 0 507 173" fill="none" xmlns="http://www.w3.org/2000/svg">
<path d="M184.513 68.8097C177.51 68.8097 172.072 62.8667 172.072 53.2423C172.072 42.1962 176.23 36.8372 184.217 36.8372C192.314 36.8372 196.363 42.4149 196.363 54.1173C196.363 63.1948 191.406 68.8097 184.513 68.8097ZM195.925 81.3498C195.925 88.4587 189.907 92.9428 182.357 92.9428C175.245 92.9428 170.54 89.1149 170.54 82.6622H157.3C157.3 96.5519 168.352 105.192 183.342 105.192C198.332 105.192 210.149 96.4426 210.149 80.2562V25.9004H210.04L195.925 32.5718C194.396 29.9651 192.178 27.8304 189.514 26.4025C186.85 24.9746 183.843 24.3089 180.825 24.4786C167.804 24.4786 157.3 35.7435 157.3 52.4768C157.3 66.5852 163.428 80.1468 181.153 80.1468C188.156 80.1468 193.955 77.3032 195.925 72.4911V81.3498ZM230.611 79.7093V15.8823L223.827 11.0702L216.386 6.21423V79.7093H230.611ZM269.235 59.2576C269.063 62.516 267.609 65.5742 265.19 67.766C262.772 69.9579 259.585 71.1058 256.324 70.9599C251.838 70.9599 249.431 68.9913 249.431 64.9447C249.431 60.3512 252.057 58.0545 260.154 56.5234C265.406 55.5391 267.922 54.7735 269.345 53.3517L269.235 59.2576ZM283.569 79.7093V45.696C283.569 32.1344 277.661 24.4786 260.591 24.4786C243.303 24.4786 237.176 32.2437 236.957 43.3992H250.197C250.853 38.5871 253.479 35.4154 259.935 35.4154C265.515 35.4154 269.017 37.4934 269.017 40.9932C269.017 44.7117 267.047 46.1334 259.935 47.1177C245.601 49.0864 235.206 50.8362 235.206 66.3665C235.206 75.1159 240.896 81.1311 253.151 81.1311C256.152 81.2769 259.151 80.798 261.957 79.7249C264.764 78.6518 267.317 77.0078 269.454 74.8971C269.557 76.5299 269.851 78.1449 270.33 79.7093H283.569ZM338.279 79.7093V25.9004H324.164V56.9608C324.164 64.0697 320.334 69.21 313.112 69.21C307.094 69.21 304.031 65.929 304.031 59.1482V25.9004H289.806V61.3355C289.806 73.1473 297.356 81.1311 308.079 81.1311C311.426 81.3288 314.763 80.5954 317.718 79.0122C320.673 77.4291 323.132 75.0583 324.82 72.1629L331.131 75.6037L338.279 79.7093ZM378.654 60.2419C378.107 66.0384 373.73 69.21 368.15 69.21C362.57 69.21 357.646 63.5229 357.646 51.8206C357.646 40.1182 362.57 36.2903 368.588 36.2903C371.099 36.1713 373.56 37.0263 375.456 38.6769C377.352 40.3275 378.537 42.6462 378.764 45.1491H393.097C392.222 32.4625 382.703 24.4786 368.697 24.4786C353.597 24.4786 343.531 32.8999 343.531 52.1487C343.531 71.3974 353.597 81.1311 368.259 81.1311C381.28 81.1311 391.456 72.7098 392.988 60.2419H378.654ZM423.625 69.21C414.981 69.21 410.604 63.7416 410.604 52.8049C410.604 41.8681 414.981 36.5091 423.625 36.5091C432.269 36.5091 436.646 41.8681 436.646 52.8049C436.646 63.7416 432.269 69.21 423.625 69.21ZM423.625 81.1311C440.366 81.1311 450.98 69.8662 450.98 52.8049C450.98 35.6341 440.476 24.4786 423.625 24.4786C406.556 24.4786 395.942 35.7435 395.942 52.8049C395.942 69.5381 406.228 81.1311 423.625 81.1311ZM204.46 134.065C203.694 122.472 196.691 116.347 181.153 116.347C164.741 116.347 158.504 123.238 158.504 132.315C158.41 134.766 158.994 137.196 160.19 139.337C161.387 141.479 163.151 143.249 165.288 144.455C169.117 146.861 174.151 148.392 183.232 150.58C187.828 151.673 191.877 152.876 191.877 156.704C191.877 160.751 187.39 162.282 182.357 162.282C175.464 162.282 171.196 159.329 171.196 154.298H156.534C156.753 165.235 165.944 173 182.467 173C197.785 173 205.992 166.329 205.992 155.173C206.21 152.321 205.452 149.479 203.841 147.114C202.231 144.749 199.864 143.001 197.129 142.158C192.971 140.518 187.172 139.315 181.044 137.565C175.245 135.924 172.291 134.612 172.291 131.44C172.291 128.269 175.354 126.956 180.716 126.956C187.172 126.956 190.016 128.815 190.782 134.065H204.46ZM258.841 171.578V133.518C258.841 122.8 251.181 116.347 240.13 116.347C232.909 116.347 226.343 119.957 224.264 124.769V98.0831L216.386 104.586L210.04 109.742V171.578H224.264V140.736C224.264 133.518 228.204 127.612 235.316 127.612C241.771 127.612 244.507 130.128 244.507 138.221V171.578H258.841ZM279.63 171.578V117.769H265.406V171.578H279.63ZM279.63 111.317V98.0831H265.406V111.317H279.63ZM299.544 139.424C300.092 131.987 304.797 127.612 310.486 127.612C316.067 127.612 321.319 131.44 321.538 139.424H299.544ZM336.2 148.392C336.2 127.066 327.446 116.347 310.924 116.347C294.402 116.347 284.882 127.066 284.882 143.689C284.882 163.157 293.855 173 311.799 173C317.12 173.247 322.365 171.667 326.664 168.524C330.963 165.381 334.057 160.863 335.434 155.72H320.772C319.787 159.438 315.738 161.735 311.143 161.735C304.14 161.735 299.544 156.485 299.107 148.392H336.2ZM355.348 171.578V109.512L349.439 104.586L341.124 98.0831V171.578H355.348ZM386.861 161.407C379.748 161.407 374.715 154.736 374.715 145.111C374.715 134.065 378.654 128.487 386.97 128.487C394.848 128.487 398.897 134.284 398.897 145.986C398.897 155.064 393.644 161.407 386.861 161.407ZM412.355 171.578V98.0831L404.339 104.313L398.349 108.666V124.769C396.625 122.121 394.253 119.957 391.457 118.483C388.661 117.009 385.534 116.274 382.374 116.347C368.478 116.347 360.272 127.831 360.272 144.127C360.272 162.282 370.01 173 383.578 173C386.568 173.164 389.545 172.506 392.188 171.099C394.83 169.692 397.037 167.588 398.568 165.016L398.678 171.578H412.355Z" fill="#005EEB"/>
<path d="M433.692 171.578V156.814H418.483V171.578H433.692ZM471.879 151.126C471.706 154.385 470.252 157.443 467.834 159.635C465.416 161.827 462.229 162.975 458.967 162.829C454.481 162.829 452.074 160.86 452.074 156.814C452.074 152.22 454.7 149.923 462.797 148.392C468.049 147.408 470.566 146.642 471.988 145.221L471.879 151.126ZM486.213 171.578V137.565C486.213 124.003 480.304 116.347 463.235 116.347C445.947 116.347 439.819 124.113 439.6 135.268H452.84C453.497 130.456 456.123 127.284 462.578 127.284C468.159 127.284 471.66 129.362 471.66 132.862C471.66 136.58 469.69 138.002 462.578 138.987C448.244 140.955 437.85 142.705 437.85 158.235C437.85 166.985 443.539 173 455.794 173C458.796 173.146 461.794 172.667 464.601 171.594C467.407 170.521 469.96 168.877 472.098 166.766C472.2 168.399 472.494 170.014 472.973 171.578H486.213ZM507.002 171.578V117.769H492.778V171.578H507.002ZM507.002 111.317V98.0831H492.778V111.317H507.002Z" fill="white"/>
<path d="M69.8638 7.50255C61.309 7.50255 52.9464 10.0382 45.8334 14.7888C38.7204 19.5394 33.1765 26.2916 29.9029 34.1915C26.6292 42.0915 25.7728 50.7843 27.4419 59.1707C29.111 67.5572 33.2307 75.2606 39.28 81.3067C45.3292 87.3529 53.0364 91.4703 61.4269 93.1382C69.8173 94.8061 78.5141 93.9496 86.4176 90.6771C94.321 87.4045 101.076 81.8629 105.829 74.753C110.581 67.6431 113.117 59.2842 113.117 50.7334C113.104 39.2716 108.542 28.283 100.434 20.1785C92.3248 12.074 81.331 7.51529 69.8638 7.50255ZM69.8638 4.37463C79.037 4.37463 88.0041 7.09353 95.6313 12.1875C103.259 17.2815 109.203 24.5217 112.714 32.9927C116.224 41.4636 117.143 50.7848 115.353 59.7776C113.563 68.7703 109.146 77.0306 102.66 83.514C96.1733 89.9974 87.9091 94.4126 78.9122 96.2014C69.9153 97.9902 60.5897 97.0721 52.1148 93.5633C43.6399 90.0545 36.3963 84.1126 31.2999 76.489C26.2036 68.8653 23.4834 59.9023 23.4834 50.7334C23.4834 38.4383 28.3699 26.6468 37.0679 17.9528C45.7659 9.25885 57.563 4.37463 69.8638 4.37463Z" fill="white"/>
<path d="M69.8638 -9.9077e-05C79.9055 -0.00625734 89.7232 2.96565 98.0742 8.53941C106.425 14.1132 112.934 22.0382 116.777 31.3112C120.619 40.5842 121.623 50.7884 119.661 60.6318C117.698 70.4753 112.858 79.5156 105.753 86.6082C100.455 91.8971 94.0526 95.9489 87.0037 98.4733C79.9549 100.998 72.4345 101.932 64.9819 101.209C57.5293 100.486 50.329 98.1243 43.8971 94.2925C37.4653 90.4608 31.9613 85.2541 27.7796 79.0458C23.598 72.8376 20.8424 65.7814 19.7103 58.3833C18.5782 50.9852 19.0977 43.4284 21.2315 36.2546C23.3654 29.0808 27.0607 22.4677 32.0526 16.8895C37.0444 11.3113 43.2092 6.90604 50.105 3.98963C56.3556 1.34452 63.076 -0.0124849 69.8638 -9.9077e-05ZM69.8638 89.5917C78.8713 89.6032 87.6039 86.4918 94.5732 80.7879C101.542 75.0841 106.317 67.1408 108.083 58.3122C109.848 49.4836 108.496 40.3162 104.256 32.3725C100.017 24.4289 93.152 18.2009 84.8324 14.7501C76.5128 11.2993 67.2534 10.8393 58.6325 13.4486C50.0116 16.0578 42.5628 21.5748 37.556 29.0591C32.5492 36.5434 30.2942 45.5317 31.1755 54.4918C32.0567 63.4519 36.0197 71.8292 42.3888 78.1956C49.6762 85.4807 59.5571 89.5791 69.8638 89.5917Z" fill="white"/>
<path d="M69.8638 4.02682C79.1754 4.01189 88.277 6.79088 95.9908 12.0041C103.503 17.0736 109.384 24.2119 112.92 32.5543C115.95 39.7117 117.144 47.5125 116.391 55.248C115.639 62.9835 112.964 70.4084 108.611 76.8482C103.539 84.3574 96.3976 90.2352 88.0514 93.7696C80.8906 96.7986 73.0862 97.9912 65.3471 97.2391C57.608 96.4869 50.1796 93.8138 43.7368 89.4627C36.2242 84.3932 30.3436 77.2549 26.8076 68.9125C23.7771 61.7551 22.584 53.9543 23.3365 46.2188C24.089 38.4833 26.7633 31.0584 31.1165 24.6186C36.1883 17.1094 43.33 11.2316 51.6762 7.6972C57.43 5.26326 63.616 4.01488 69.8638 4.02682ZM69.8638 96.7444C78.9682 96.7444 87.8681 94.0459 95.4381 88.9901C103.008 83.9344 108.908 76.7484 112.392 68.341C115.876 59.9336 116.788 50.6823 115.012 41.7571C113.236 32.8318 108.851 24.6335 102.414 18.1987C95.9759 11.764 87.7737 7.38183 78.8443 5.60648C69.9149 3.83114 60.6593 4.74231 52.248 8.22477C43.8366 11.7072 36.6474 17.6046 31.5892 25.1711C26.5311 32.7375 23.8314 41.6333 23.8314 50.7334C23.8453 62.932 28.6996 74.627 37.3293 83.2527C45.9591 91.8784 57.6595 96.7305 69.8638 96.7444ZM69.8638 7.15255C78.4868 7.15255 86.9161 9.70833 94.0859 14.4967C101.256 19.2851 106.844 26.091 110.144 34.0539C113.444 42.0167 114.307 50.7788 112.625 59.2322C110.943 67.6855 106.791 75.4505 100.694 81.5452C94.5965 87.6399 86.8281 91.7905 78.3709 93.4722C69.9137 95.154 61.1474 94.2913 53.1807 90.9932C45.214 87.6952 38.4046 82.11 33.6137 74.9438C28.8227 67.7776 26.2653 59.3523 26.2649 50.7334C26.2782 39.1797 30.8759 28.103 39.0494 19.9333C47.2229 11.7636 58.3047 7.16586 69.8638 7.15255ZM69.8638 93.6165C78.3498 93.6165 86.6451 91.1012 93.7009 86.3888C100.757 81.6764 106.256 74.9786 109.503 67.1422C112.751 59.3058 113.6 50.6829 111.944 42.3639C110.289 34.0449 106.202 26.4035 100.202 20.406C94.201 14.4084 86.5558 10.3242 78.2329 8.6697C69.9099 7.01521 61.283 7.86479 53.4432 11.111C45.6033 14.3572 38.9026 19.8543 34.1883 26.907C29.4741 33.9597 26.9581 42.2514 26.9586 50.7334C26.9713 62.1034 31.4958 73.004 39.5393 81.0438C47.5828 89.0836 58.4885 93.6037 69.8638 93.6165Z" fill="white"/>
<path d="M51.4902 66.7295C52.0115 65.9047 52.7023 65.2001 53.5167 64.6625C54.2685 64.1623 55.0765 63.7519 55.9239 63.4398C54.2109 61.963 52.8554 60.1169 51.9597 58.0406C51.064 55.9643 50.6513 53.7119 50.7528 51.4531C50.6508 49.1752 51.0711 46.9043 51.9813 44.8136C52.8916 42.7228 54.2678 40.8677 56.0049 39.3898C59.8067 36.3258 64.5925 34.7463 69.4721 34.9451H70.2205C73.0425 34.9048 75.848 35.38 78.4991 36.3472C78.9222 36.302 79.3139 36.2473 79.6743 36.1831C80.7017 36.0329 81.7002 35.7268 82.6352 35.2754C83.2619 34.9824 83.7857 34.5075 84.1386 33.9127C84.4117 33.3996 84.5538 32.8271 84.5522 32.2459C84.5985 31.063 84.3535 29.8867 83.8388 28.8205C83.3163 27.8786 82.5913 27.0644 81.7161 26.4363C81.4534 26.2292 81.2237 26.0528 81.0267 25.907C80.9454 25.8628 80.8755 25.8003 80.8227 25.7243C80.7699 25.6483 80.7356 25.5611 80.7225 25.4695C80.7244 25.3382 80.7522 25.2085 80.8044 25.088C80.8566 24.9675 80.9322 24.8585 81.0267 24.7673C81.1038 24.6726 81.2 24.595 81.3089 24.5396C81.4178 24.4843 81.5371 24.4523 81.6592 24.4458C82.0019 24.4542 82.3413 24.5147 82.6658 24.6252C83.0719 24.7586 83.4572 24.9486 83.8103 25.1895C84.4383 25.5644 85.0251 26.0043 85.561 26.5019C86.1642 27.0494 86.7091 27.6578 87.187 28.3174C87.6772 28.9932 88.0801 29.7281 88.3862 30.5048C88.6971 31.2864 88.8561 32.1201 88.8545 32.9612C88.8814 33.9658 88.6218 34.9573 88.1061 35.82C87.5849 36.6449 86.8941 37.3495 86.0797 37.8871C85.2627 38.4326 84.3805 38.8736 83.4536 39.1995L83.6725 39.3876C85.4187 40.8469 86.8058 42.6882 87.7264 44.769C88.647 46.8497 89.0764 49.1143 88.9814 51.3874C89.0843 53.673 88.662 55.9517 87.747 58.0489C86.8321 60.146 85.4487 62.0058 83.7031 63.4857C79.8937 66.5463 75.104 68.1238 70.2205 67.926H69.4721C66.4002 67.9824 63.3485 67.4185 60.4998 66.268C60.2984 66.2957 60.1051 66.3263 59.9199 66.3599C58.8916 66.5106 57.8924 66.8175 56.9568 67.2698C56.3298 67.5634 55.8059 68.0391 55.4534 68.6347C55.1803 69.1478 55.0382 69.7203 55.0398 70.3015C54.964 71.4346 55.1868 72.5678 55.686 73.5879C56.1852 74.6081 56.9433 75.4796 57.8847 76.1155C58.1414 76.3167 58.3712 76.491 58.574 76.6383C58.6555 76.6823 58.7254 76.7448 58.7783 76.8208C58.8311 76.8967 58.8653 76.9841 58.8782 77.0757C58.8763 77.207 58.8485 77.3367 58.7963 77.4572C58.7441 77.5777 58.6685 77.6867 58.574 77.7779C58.4962 77.8721 58.3996 77.949 58.2903 78.0036C58.181 78.0582 58.0615 78.0894 57.9394 78.095C57.5967 78.0868 57.2572 78.0263 56.9327 77.9157C56.5266 77.7823 56.1412 77.5923 55.7882 77.3513C55.1603 76.9763 54.5736 76.5364 54.0375 76.0389C53.4345 75.4905 52.8896 74.8814 52.4116 74.2212C51.9212 73.5455 51.5182 72.8106 51.2123 72.0339C50.9019 71.2537 50.7429 70.4215 50.744 69.5818C50.7179 68.5797 50.9766 67.5906 51.4902 66.7295ZM79.8559 44.132C76.9522 42.3969 73.6078 41.5399 70.2271 41.6647H69.4787C66.0823 41.5289 62.72 42.3864 59.8039 44.132C58.5733 44.9051 57.5713 45.9923 56.9012 47.2815C56.2311 48.5708 55.9171 50.0153 55.9917 51.4662C55.9243 52.9087 56.2418 54.3433 56.9117 55.6228C57.5816 56.9023 58.5797 57.9809 59.8039 58.7479C62.7148 60.5038 66.0771 61.3677 69.4743 61.2327H70.2205C73.6059 61.3573 76.9535 60.4874 79.8494 58.7304C81.0842 57.9592 82.0914 56.8734 82.7675 55.5845C83.4436 54.2956 83.7643 52.85 83.6965 51.3962C83.7633 49.9529 83.4424 48.5181 82.767 47.2407C82.0917 45.9633 81.0865 44.8899 79.8559 44.132Z" fill="white"/>
<path d="M50.5449 69.5818C50.5195 68.5428 50.788 67.5178 51.3196 66.6245C51.856 65.7762 52.566 65.0508 53.4029 64.4962C54.0724 64.0491 54.7868 63.673 55.5344 63.3741C53.9507 61.9791 52.694 60.2524 51.8535 58.317C50.9522 56.1432 50.5054 53.8081 50.5405 51.4552C50.504 49.0855 50.9578 46.7338 51.8732 44.5476C52.7781 42.4915 54.1482 40.6734 55.8758 39.2367C57.6618 37.7349 59.7207 36.5912 61.9397 35.8682C64.3748 35.0959 66.9175 34.7164 69.4721 34.7439H70.2205C73.0504 34.7065 75.8638 35.18 78.5254 36.1416C78.9237 36.0978 79.2979 36.0453 79.6393 35.9841C80.6466 35.8366 81.6258 35.5371 82.5433 35.096C83.1329 34.8202 83.6267 34.3747 83.9613 33.8164C84.2182 33.332 84.3519 32.7919 84.3509 32.2437C84.3951 31.0919 84.1569 29.9468 83.6571 28.908C83.1474 27.9934 82.442 27.2025 81.5913 26.5916C81.3418 26.3947 81.1121 26.2219 80.9085 26.0732C80.8002 26.0111 80.7084 25.9238 80.641 25.8187C80.5735 25.7136 80.5325 25.5938 80.5212 25.4695C80.5227 25.3124 80.5551 25.1572 80.6167 25.0127C80.6783 24.8682 80.7678 24.7372 80.8801 24.6274C80.9763 24.513 81.0952 24.4199 81.2293 24.354C81.3635 24.2881 81.5098 24.2508 81.6592 24.2446C82.0226 24.253 82.3827 24.3164 82.7271 24.4327C83.1493 24.5717 83.55 24.769 83.9176 25.0189C84.5552 25.3992 85.1515 25.8449 85.6967 26.3488C86.3103 26.9072 86.8647 27.5273 87.3511 28.1993C87.8511 28.8902 88.2621 29.6413 88.5744 30.4348C88.8931 31.239 89.0565 32.0962 89.0559 32.9612C89.0813 34.0002 88.8127 35.0252 88.2812 35.9185C87.7442 36.7672 87.0334 37.4925 86.1957 38.0468C85.4629 38.5358 84.6775 38.9408 83.8541 39.2542C85.5703 40.6752 86.9348 42.4733 87.8413 44.5082C88.7623 46.6831 89.2192 49.0261 89.1828 51.3874C89.2198 53.7661 88.7646 56.1268 87.8457 58.3214C86.9397 60.381 85.5663 62.2016 83.8344 63.6388C82.0433 65.1404 79.9802 66.284 77.7573 67.0073C75.3204 67.7779 72.7763 68.156 70.2205 68.1273H69.4721C67.8623 68.1342 66.2552 67.9943 64.6708 67.7095C63.2332 67.4488 61.8275 67.0352 60.4779 66.4758C60.2985 66.5021 60.1256 66.5283 59.9593 66.5589C58.9519 66.7065 57.9728 67.0059 57.0553 67.447C56.4655 67.7227 55.9717 68.1683 55.6372 68.7266C55.3804 69.211 55.2466 69.7511 55.2477 70.2993C55.1715 71.4005 55.3863 72.5024 55.8707 73.4945C56.355 74.4865 57.0919 75.3338 58.0072 75.9514C58.2611 76.1505 58.4909 76.3255 58.69 76.4698C58.7981 76.532 58.8895 76.6194 58.9566 76.7245C59.0236 76.8296 59.0643 76.9493 59.0752 77.0735C59.0737 77.2306 59.0412 77.3858 58.9796 77.5303C58.918 77.6748 58.8285 77.8058 58.7163 77.9157C58.6197 78.0292 58.5006 78.1215 58.3665 78.1866C58.2324 78.2518 58.0862 78.2884 57.9372 78.2941C57.5737 78.2859 57.2136 78.2224 56.8693 78.106C56.447 77.9671 56.0463 77.7698 55.6788 77.5198C55.0413 77.1392 54.445 76.6935 53.8997 76.1898C53.2863 75.6312 52.7319 75.0112 52.2452 74.3393C51.7451 73.6485 51.3341 72.8974 51.0219 72.1039C50.7052 71.3008 50.5434 70.4451 50.5449 69.5818ZM56.3069 63.5076L55.9874 63.6279C55.1571 63.9353 54.3654 64.3383 53.6283 64.8287C52.8375 65.3509 52.1663 66.0345 51.6588 66.8345C51.1673 67.6643 50.9201 68.6158 50.9454 69.5797C50.9454 70.3938 51.0998 71.2006 51.4005 71.9573C51.7005 72.7191 52.0954 73.44 52.5757 74.1031C53.044 74.7532 53.5779 75.3534 54.1688 75.8946C54.6945 76.381 55.2695 76.8113 55.8845 77.1785C56.2221 77.409 56.5904 77.5908 56.9787 77.7188C57.2834 77.8231 57.6021 77.8806 57.9241 77.8894C58.0185 77.883 58.1106 77.8571 58.1946 77.8135C58.2786 77.7698 58.3526 77.7093 58.4121 77.6357C58.4888 77.5628 58.5502 77.4754 58.5927 77.3785C58.6352 77.2816 58.6578 77.1771 58.6594 77.0713C58.6594 76.9948 58.5806 76.8964 58.4405 76.7936C58.237 76.6448 58.0029 76.4676 57.7468 76.2664C56.7818 75.6111 56.0047 74.7152 55.4927 73.6675C54.9806 72.6197 54.7513 71.4564 54.8275 70.2927C54.8285 69.6825 54.9788 69.0818 55.2652 68.5429C55.6369 67.9121 56.1896 67.4076 56.8518 67.0948C57.8068 66.6333 58.8266 66.3198 59.8761 66.1652C60.0621 66.1324 60.2613 66.1018 60.4626 66.0733H60.5173L60.5676 66.0952C63.3901 67.2316 66.4121 67.7903 69.4546 67.7379H70.2205C75.0542 67.9256 79.7935 66.3655 83.5696 63.3435C85.2909 61.8782 86.655 60.0396 87.558 57.9677C88.4609 55.8958 88.8789 53.6452 88.7801 51.3874C88.8737 49.1433 88.4518 46.9076 87.5467 44.8517C86.6416 42.7959 85.2773 40.9746 83.5587 39.5276L83.3398 39.3417L83.0553 39.1186L83.3924 38.9983C84.3032 38.6793 85.1707 38.248 85.9746 37.7143C86.7654 37.1921 87.4367 36.5085 87.9442 35.7085C88.4345 34.8777 88.6802 33.9254 88.6532 32.9612C88.6525 32.1485 88.4981 31.3432 88.198 30.5879C87.8978 29.8262 87.503 29.1053 87.0229 28.4421C86.5524 27.7931 86.0164 27.1942 85.4232 26.655C84.8993 26.1664 84.3258 25.7338 83.7119 25.3645C83.3742 25.1342 83.0059 24.9523 82.6177 24.8242C82.3129 24.7201 81.9942 24.6626 81.6723 24.6536C81.5761 24.6573 81.4817 24.6812 81.3954 24.7238C81.309 24.7664 81.2326 24.8267 81.1712 24.9008C81.0945 24.9737 81.0331 25.0612 80.9907 25.1581C80.9482 25.255 80.9255 25.3593 80.9239 25.4651C80.9239 25.5417 81.0026 25.6401 81.1427 25.7429C81.3506 25.8938 81.5804 26.071 81.8364 26.2701C82.7374 26.9147 83.4847 27.7506 84.0248 28.7177C84.5558 29.815 84.8098 31.0256 84.7645 32.2437C84.7652 32.8576 84.6149 33.4623 84.3268 34.0045C83.955 34.6352 83.4023 35.1397 82.7402 35.4526C81.7852 35.9141 80.7654 36.2276 79.7159 36.3822C79.3504 36.4456 78.95 36.5025 78.5254 36.5484H78.4773L78.4313 36.5309C75.8023 35.5763 73.0217 35.1072 70.2249 35.1463H69.4765C64.6451 34.9564 59.908 36.5186 56.1384 39.5451C54.4263 41.0069 53.0694 42.8388 52.1704 44.9023C51.2715 46.9658 50.854 49.2067 50.9497 51.4552C50.854 53.684 51.263 55.9055 52.1462 57.9542C53.0295 60.0028 54.3642 61.8257 56.0508 63.2866L56.3069 63.5076ZM55.7882 51.4531C55.757 49.9425 56.0919 48.4468 56.7642 47.0937C57.4482 45.8084 58.4579 44.7253 59.6923 43.9526C61.0399 43.0942 62.518 42.4604 64.069 42.0759C65.8343 41.6453 67.6463 41.4358 69.4634 41.4525H70.2205C72.0238 41.4367 73.822 41.6461 75.5733 42.0759C77.1282 42.4629 78.6111 43.0965 79.9654 43.9526C81.2053 44.72 82.2236 45.7974 82.9197 47.0784C83.5964 48.4123 83.9346 49.8921 83.9044 51.3874C83.9346 52.894 83.5966 54.3851 82.9197 55.7315C82.2249 57.0221 81.207 58.1104 79.9654 58.8901C78.6136 59.7569 77.1304 60.3996 75.5733 60.7931C73.8231 61.2302 72.0245 61.4441 70.2205 61.4296H69.4721C67.6541 61.4464 65.8411 61.2355 64.0756 60.8018C62.5235 60.4141 61.0452 59.7757 59.6988 58.9119C58.4676 58.1364 57.4587 57.0549 56.7708 55.7731C56.0969 54.4351 55.7596 52.9508 55.7882 51.4531ZM83.493 51.3874C83.5568 49.9787 83.2434 48.5785 82.5852 47.3312C81.927 46.0838 80.9479 45.0346 79.7487 44.2917C76.8733 42.5801 73.565 41.734 70.2205 41.855H69.4721C66.1173 41.7253 62.7969 42.571 59.9133 44.2895C58.7143 45.0475 57.7381 46.1101 57.0845 47.3687C56.4309 48.6273 56.1233 50.0367 56.1931 51.4531C56.1301 52.8614 56.441 54.2613 57.0944 55.5106C57.7478 56.76 58.7204 57.8142 59.9133 58.5663C62.793 60.2959 66.115 61.1481 69.4721 61.0184H70.2205C73.5687 61.1394 76.8793 60.2812 79.7465 58.5488C80.9478 57.7919 81.9272 56.7306 82.5853 55.4728C83.2433 54.2149 83.5565 52.8054 83.493 51.3874Z" fill="white"/>
<path d="M61.3095 51.0856C61.3095 53.5029 65.0933 55.4625 69.761 55.4625C74.4286 55.4625 78.2125 53.5029 78.2125 51.0856C78.2125 48.6683 74.4286 46.7087 69.761 46.7087C65.0933 46.7087 61.3095 48.6683 61.3095 51.0856Z" fill="#005EEB"/>
<path d="M41.7849 170.977L33.0442 170.504C33.3823 165.03 32.912 159.538 31.6482 154.202C31.0849 151.458 30.0536 148.83 28.5996 146.434L27.9804 145.61L27.8602 144.954C27.4509 144.274 25.3631 141.354 15.7605 132.637C10.0948 127.495 4.67464 122.932 4.61993 122.886L3.24739 121.733L3.07909 119.95L9.15527e-05 87.2497L3.67427 56.4857L8.46241 57.6413C11.0236 58.3774 13.3604 59.7404 15.2615 61.607C19.5746 65.9592 22.0102 71.8276 22.0457 77.9534C22.4757 83.4287 22.5204 88.9272 22.1793 94.4087L28.2849 110.341L40.5897 123.364L34.226 129.371L20.7303 115.089L20.4199 114.281L13.0534 95.056L13.4322 93.8C13.8392 88.6899 13.7971 83.5538 13.3056 78.4511C13.2357 75.4548 12.3992 72.527 10.8762 69.9452L8.79526 87.3586L11.6205 117.358C13.7585 119.182 18.0914 122.918 22.4288 126.882C32.5631 136.141 35.2393 139.739 36.0708 141.869C37.9612 145.043 39.3329 148.497 40.1345 152.102C41.6022 158.28 42.1585 164.638 41.7849 170.977Z" fill="white"/>
<path d="M71.3562 172.417L62.6465 171.572C62.8544 168.597 62.8522 164.154 62.6465 157.992L62.6246 157.36L62.7822 156.748C65.0406 147.999 65.8785 141.939 65.3446 138.214C65.0951 136.247 64.1055 134.447 62.5765 133.183C62.0929 132.673 61.5458 132.09 61.0009 131.433L60.7119 131.087L60.4934 130.69C60.2614 130.253 58.6486 127.776 49.5953 121.603C45.9889 119.145 42.5269 117.01 40.8418 115.984C39.9276 115.763 39.0901 115.297 38.4189 114.638C37.7883 114.015 37.2192 113.333 36.7189 112.601C35.3621 110.704 33.4211 107.5 30.9482 103.079L30.8013 102.816L30.6918 102.539C28.6303 97.2714 19.1682 98.4348 19.0719 98.4479H19.0869L17.8132 89.7925C20.5543 89.4477 23.331 89.5013 26.057 89.9506C28.5425 90.3311 30.9299 91.1916 33.0858 92.4851C35.6136 94.0183 37.5867 96.3169 38.7186 99.0471C40.3005 101.997 42.0365 104.863 43.9187 107.631L44.1923 107.79C44.3958 107.91 49.2255 110.752 54.4951 114.352C63.8723 120.744 66.7497 124.108 67.9577 126.109C68.2575 126.453 68.5839 126.794 68.9252 127.155C71.7161 129.732 73.5138 133.206 74.0062 136.972C74.7021 141.828 73.8796 148.622 71.4133 158.318C71.6417 162.935 71.6318 167.561 71.3845 172.177L68.656 171.987L71.3717 172.326L71.3562 172.417Z" fill="white"/>
<path d="M97.9475 170.977C97.5701 164.639 98.1223 158.28 99.5867 152.102C100.388 148.497 101.76 145.042 103.65 141.869C104.482 139.739 107.151 136.141 117.292 126.882C121.63 122.918 125.963 119.182 128.101 117.358L130.926 87.3586L128.845 69.9346C127.31 72.5152 126.473 75.4495 126.416 78.4511C125.925 83.5538 125.882 88.6899 126.289 93.8L126.67 95.0581L118.995 115.093L118.4 115.722L105.489 129.375L99.1245 123.369L111.43 110.345L117.535 94.4131C117.194 88.9315 117.239 83.4329 117.669 77.9577C117.705 71.8319 120.14 65.9635 124.453 61.6113C126.354 59.7447 128.691 58.3817 131.252 57.6456L136.04 56.4911L139.715 87.254L136.467 121.739L135.095 122.892C135.04 122.938 129.602 127.516 123.934 132.661C114.347 141.364 112.262 144.282 111.852 144.96L111.732 145.616L111.112 146.441C109.659 148.836 108.628 151.464 108.064 154.209C106.801 159.545 106.33 165.038 106.668 170.511L97.9475 170.977Z" fill="white"/>
<path d="M68.3737 172.418L68.3625 172.328L71.0873 171.99L68.3518 172.178C68.105 167.562 68.0951 162.937 68.323 158.321C65.8567 148.624 65.0408 141.831 65.7301 136.975C66.2223 133.21 68.0192 129.735 70.8089 127.157C71.1503 126.799 71.4657 126.455 71.7765 126.112C72.9757 124.11 75.8619 120.746 85.239 114.355C90.5152 110.759 95.3384 107.917 95.5398 107.793L95.8133 107.631C97.6955 104.863 99.431 101.998 101.013 99.0476C102.146 96.3171 104.12 94.0185 106.648 92.4855C108.804 91.192 111.192 90.3316 113.677 89.9511C116.403 89.5012 119.18 89.4476 121.921 89.793L120.647 98.4484H120.662C120.568 98.4353 111.106 97.2697 109.042 102.541L108.933 102.819L108.786 103.079C106.313 107.5 104.372 110.705 103.015 112.601C102.515 113.333 101.946 114.015 101.315 114.639C100.644 115.298 99.8066 115.763 98.8923 115.985C97.1963 117.011 93.7343 119.145 90.1388 121.604C81.0855 127.776 79.4727 130.257 79.2408 130.691L79.0223 131.088L78.7332 131.434C78.1905 132.09 77.6391 132.663 77.1577 133.183C75.6295 134.448 74.6406 136.248 74.3917 138.215C73.8578 141.933 74.6958 148 76.952 156.745L77.1096 157.359L77.0877 157.991C76.8688 164.144 76.8688 168.586 77.0877 171.57L68.3737 172.418Z" fill="white"/>
<path d="M32.8978 161.654H106.891L107.985 172.453H31.3922L32.8978 161.654Z" fill="#005EEB"/>
<path d="M34.8017 163.841L33.9067 170.266H105.565L104.908 163.841H34.8017ZM32.8978 161.654H106.891L107.985 172.453H31.3922L32.8978 161.654Z" fill="#005EEB"/>
<path d="M70.098 172.385L62.7122 161.652H77.0067L70.098 172.385Z" fill="white"/>
</svg>
