<svg width="613" height="119" viewBox="0 0 613 119" fill="none" xmlns="http://www.w3.org/2000/svg">
<path d="M24.7583 37.4464L23.4662 40.4194C23.2642 40.9035 22.9235 41.317 22.487 41.6079C22.0505 41.8988 21.5377 42.054 21.0132 42.054C20.4886 42.054 19.9758 41.8988 19.5393 41.6079C19.1028 41.317 18.7621 40.9035 18.5602 40.4194L17.2681 37.4464C14.9962 32.1871 10.8356 27.9702 5.60723 25.628L1.62049 23.8473C1.13682 23.6249 0.72709 23.2684 0.439874 22.8201C0.152657 22.3718 0 21.8506 0 21.3182C0 20.7858 0.152657 20.2646 0.439874 19.8163C0.72709 19.3681 1.13682 19.0116 1.62049 18.7891L5.38662 17.1135C10.7464 14.7045 14.9782 10.3317 17.2103 4.89587L18.5444 1.68652C18.7396 1.18938 19.0801 0.762572 19.5214 0.461738C19.9627 0.160905 20.4844 0 21.0184 0C21.5525 0 22.0742 0.160905 22.5155 0.461738C22.9568 0.762572 23.2972 1.18938 23.4924 1.68652L24.8213 4.89062C27.051 10.3275 31.281 14.7022 36.6397 17.1135L40.4111 18.7943C40.8933 19.0175 41.3016 19.3739 41.5877 19.8216C41.8739 20.2693 42.0259 20.7895 42.0259 21.3208C42.0259 21.8522 41.8739 22.3724 41.5877 22.8201C41.3016 23.2678 40.8933 23.6242 40.4111 23.8473L36.4191 25.6227C31.1918 27.9673 27.0331 32.186 24.7636 37.4464" fill="#4093FF"/>
<path d="M81.118 32.6544L105.931 57.473C107.385 58.9267 108.381 60.775 108.795 62.7889C109.208 64.8029 109.022 66.894 108.258 68.803L95.8359 99.8617C95.1389 101.6 93.9898 103.121 92.5075 104.266C91.0252 105.411 89.2637 106.14 87.4054 106.375L60.7273 109.71C60.041 109.791 59.3231 109.889 58.5737 110.005L56.2416 110.383L55.023 110.603L51.2253 111.339L48.6253 111.89L44.7121 112.773L39.6958 113.97L31.5437 116.05L28.1505 116.964C27.2942 117.2 26.3925 117.216 25.5281 117.013C24.6636 116.809 23.8641 116.392 23.2028 115.799C22.5415 115.206 22.0396 114.457 21.7432 113.62C21.4467 112.783 21.3651 111.885 21.506 111.008L21.6845 110.241L23.2341 104.4L24.6208 98.8953L25.8184 93.879L26.6956 89.9658L27.2471 87.3605L27.9877 83.5681L28.4079 81.1676L28.7441 78.9195L32.2108 51.1857C32.4467 49.3268 33.1756 47.5649 34.3217 46.0825C35.4679 44.6002 36.9897 43.4514 38.7293 42.7552L69.7881 30.3327C71.6971 29.5693 73.7882 29.3829 75.8021 29.7965C77.8161 30.2102 79.6644 31.2004 81.118 32.6544ZM61.6308 62.0954C60.3037 63.4233 59.3568 65.0825 58.8884 66.9005C58.4201 68.7185 58.4474 70.6287 58.9677 72.4325C58.5847 72.6567 58.2318 72.9285 57.9172 73.2414L36.602 94.5566C36.4623 94.6983 36.3658 94.8769 36.3236 95.0714L35.8561 97.0936L34.9212 100.996L34.4694 102.84C34.4232 103.017 34.4241 103.204 34.4721 103.38C34.5202 103.557 34.6136 103.718 34.7431 103.848C34.8727 103.977 35.0339 104.071 35.2107 104.119C35.3875 104.167 35.5738 104.168 35.7511 104.122L39.5172 103.202L43.525 102.267C43.7182 102.223 43.8948 102.125 44.0345 101.984L65.3496 80.6686C65.6622 80.3557 65.934 80.0045 66.1585 79.6234C67.9384 80.135 69.8218 80.1671 71.6181 79.7163C73.4143 79.2656 75.0595 78.348 76.3868 77.0565C77.7141 75.7651 78.6765 74.1457 79.1764 72.3625C79.6762 70.5793 79.6958 68.6957 79.2331 66.9025C78.7704 65.1093 77.842 63.4702 76.5418 62.1515C75.2415 60.8327 73.6158 59.8811 71.8294 59.3931C70.0429 58.9051 68.1591 58.898 66.3691 59.3725C64.579 59.8471 62.9461 60.7864 61.636 62.0954H61.6308ZM86.0975 22.7847C87.0013 21.8796 88.2043 21.3353 89.4809 21.2541C90.7574 21.1728 92.0197 21.5602 93.031 22.3435L93.5247 22.7847L115.812 45.0663C116.764 46.0094 117.319 47.2807 117.365 48.62C117.41 49.9593 116.942 51.2653 116.056 52.2707C115.17 53.2762 113.933 53.905 112.599 54.0284C111.265 54.1518 109.933 53.7606 108.878 52.9348L108.379 52.4936L86.0975 30.2119C85.1128 29.2269 84.5596 27.8911 84.5596 26.4983C84.5596 25.1055 85.1128 23.7697 86.0975 22.7847Z" fill="white"/>
<path d="M157.755 22.4545H173.005V80.9545L201.255 50.142H218.505L192.692 79.142L220.13 116.954H203.255L181.317 86.017L173.005 94.392V116.954H157.755V22.4545ZM247.817 118.392C240.9 118.392 235.338 117.496 231.13 115.704C226.963 113.913 223.942 111.413 222.067 108.204C220.192 104.954 219.255 101.163 219.255 96.8295V70.3295C219.255 65.9128 220.317 62.1003 222.442 58.892C224.567 55.642 227.755 53.142 232.005 51.392C236.255 49.642 241.525 48.767 247.817 48.767C254.109 48.767 259.359 49.642 263.567 51.392C267.817 53.142 271.005 55.642 273.13 58.892C275.296 62.1003 276.38 65.9128 276.38 70.3295V96.8295C276.38 101.163 275.463 104.954 273.63 108.204C271.796 111.413 268.796 113.913 264.63 115.704C260.463 117.496 254.859 118.392 247.817 118.392ZM247.817 107.517C251.775 107.517 254.984 106.788 257.442 105.329C259.9 103.871 261.13 101.329 261.13 97.7045V69.517C261.13 65.8503 259.921 63.2878 257.505 61.8295C255.13 60.3712 251.9 59.642 247.817 59.642C243.817 59.642 240.588 60.3712 238.13 61.8295C235.713 63.2878 234.505 65.8503 234.505 69.517V97.7045C234.505 101.329 235.671 103.871 238.005 105.329C240.38 106.788 243.65 107.517 247.817 107.517ZM285.442 94.767V22.4545H300.692V94.642C300.692 97.4753 301.046 99.7253 301.755 101.392C302.463 103.017 303.692 104.184 305.442 104.892C307.192 105.559 309.63 105.892 312.755 105.892H314.817L313.505 117.642H307.63C302.713 117.642 298.609 116.975 295.317 115.642C292.025 114.267 289.546 111.934 287.88 108.642C286.255 105.309 285.442 100.684 285.442 94.767ZM345.442 118.392C338.525 118.392 332.963 117.496 328.755 115.704C324.588 113.913 321.567 111.413 319.692 108.204C317.817 104.954 316.88 101.163 316.88 96.8295V70.3295C316.88 65.9128 317.942 62.1003 320.067 58.892C322.192 55.642 325.38 53.142 329.63 51.392C333.88 49.642 339.15 48.767 345.442 48.767C351.734 48.767 356.984 49.642 361.192 51.392C365.442 53.142 368.63 55.642 370.755 58.892C372.921 62.1003 374.005 65.9128 374.005 70.3295V96.8295C374.005 101.163 373.088 104.954 371.255 108.204C369.421 111.413 366.421 113.913 362.255 115.704C358.088 117.496 352.484 118.392 345.442 118.392ZM345.442 107.517C349.4 107.517 352.609 106.788 355.067 105.329C357.525 103.871 358.755 101.329 358.755 97.7045V69.517C358.755 65.8503 357.546 63.2878 355.13 61.8295C352.755 60.3712 349.525 59.642 345.442 59.642C341.442 59.642 338.213 60.3712 335.755 61.8295C333.338 63.2878 332.13 65.8503 332.13 69.517V97.7045C332.13 101.329 333.296 103.871 335.63 105.329C338.005 106.788 341.275 107.517 345.442 107.517ZM382.817 50.142H398.067V56.267C398.942 55.3087 400.213 54.2462 401.88 53.0795C403.588 51.9128 405.734 50.9128 408.317 50.0795C410.942 49.2045 414.025 48.767 417.567 48.767C422.192 48.767 426.067 49.4753 429.192 50.892C432.317 52.3087 434.713 54.4128 436.38 57.2045C438.963 54.6212 442.005 52.5795 445.505 51.0795C449.005 49.5378 453.317 48.767 458.442 48.767C463.15 48.767 467.088 49.6003 470.255 51.267C473.421 52.892 475.817 55.142 477.442 58.017C479.109 60.8503 479.942 64.1212 479.942 67.8295V116.954H464.692V68.9545C464.692 65.4962 463.671 63.1628 461.63 61.9545C459.63 60.7045 457.067 60.0795 453.942 60.0795C451.359 60.0795 448.942 60.4753 446.692 61.267C444.484 62.0587 442.692 63.2045 441.317 64.7045C439.984 66.1628 439.255 67.9128 439.13 69.9545V116.954H423.88V68.9545C423.88 65.4962 422.796 63.1628 420.63 61.9545C418.505 60.7045 415.88 60.0795 412.755 60.0795C410.13 60.0795 407.692 60.4962 405.442 61.3295C403.234 62.1212 401.442 63.2878 400.067 64.8295C398.734 66.3712 398.067 68.2462 398.067 70.4545V116.954H382.817V50.142Z" fill="white"/>
<path d="M493.692 100.079H511.442V116.954H493.692V100.079ZM542.442 118.392C538.275 118.392 534.692 117.621 531.692 116.079C528.734 114.496 526.463 112.329 524.88 109.579C523.338 106.788 522.567 103.642 522.567 100.142C522.567 96.892 523.213 94.0795 524.505 91.7045C525.796 89.2878 528.192 87.0795 531.692 85.0795C535.192 83.0378 540.234 81.017 546.817 79.017C550.359 77.892 553.255 76.8712 555.505 75.9545C557.755 75.0378 559.4 73.9962 560.442 72.8295C561.484 71.6628 562.005 70.1628 562.005 68.3295C562.005 66.5378 561.671 64.9962 561.005 63.7045C560.38 62.4128 559.255 61.4128 557.63 60.7045C556.046 59.9962 553.817 59.642 550.942 59.642C547.567 59.642 545.025 60.0587 543.317 60.892C541.65 61.6837 540.525 62.767 539.942 64.142C539.4 65.517 539.13 67.1003 539.13 68.892V71.5795H524.755V69.267C524.755 62.767 526.921 57.7253 531.255 54.142C535.63 50.5587 542.317 48.767 551.317 48.767C557.734 48.767 562.817 49.7045 566.567 51.5795C570.317 53.4128 573.005 56.0378 574.63 59.4545C576.296 62.8295 577.13 66.8087 577.13 71.392V98.517C577.13 101.725 577.525 103.809 578.317 104.767C579.15 105.725 580.734 106.204 583.067 106.204L582.13 117.454H578.942C574.359 117.454 570.88 116.746 568.505 115.329C566.13 113.871 564.38 111.725 563.255 108.892C562.13 110.434 560.609 111.934 558.692 113.392C556.775 114.85 554.463 116.038 551.755 116.954C549.088 117.913 545.984 118.392 542.442 118.392ZM546.692 107.892C548.4 107.892 550.275 107.559 552.317 106.892C554.359 106.184 556.255 105.204 558.005 103.954C559.796 102.704 561.13 101.204 562.005 99.4545V82.267C560.963 83.1837 559.234 84.267 556.817 85.517C554.442 86.7253 551.609 87.892 548.317 89.017C544.15 90.392 541.275 91.892 539.692 93.517C538.109 95.142 537.317 97.1003 537.317 99.392C537.317 102.309 538.13 104.454 539.755 105.829C541.38 107.204 543.692 107.892 546.692 107.892ZM588.005 50.142H603.192V116.954H588.005V50.142ZM587.817 37.8295V22.4545H603.317V37.8295H587.817Z" fill="#4093FF"/>
</svg>
