<svg width="334" height="234" viewBox="0 0 334 234" fill="none" xmlns="http://www.w3.org/2000/svg">
<path d="M48.4369 49.7197C52.6915 49.7293 56.7692 51.425 59.7778 54.4358C62.7863 57.4465 64.4807 61.5272 64.4903 65.7851C64.4807 70.043 62.7863 74.1237 59.7778 77.1345C56.7692 80.1452 52.6915 81.8409 48.4369 81.8505C44.1822 81.8409 40.1045 80.1452 37.0959 77.1345C34.0874 74.1237 32.393 70.043 32.3834 65.7851C32.393 61.5272 34.0874 57.4465 37.0959 54.4358C40.1045 51.425 44.1822 49.7293 48.4369 49.7197Z" fill="url(#paint0_linear_1081_2)"/>
<path d="M47.1788 0C73.3614 0 94.9818 50.2173 94.9818 76.4246C94.9818 102.632 81.1137 33.929 47.1788 33.929C13.2439 33.929 0.00756836 102.632 0.00756836 76.4246C0.00756836 50.2173 20.991 0 47.1788 0Z" fill="url(#paint1_linear_1081_2)"/>
<path d="M27.4747 163.789C22.1904 163.959 16.9712 162.583 12.4569 159.829C8.34369 157.172 5.10773 153.357 3.15631 148.863C0.970436 143.759 -0.102933 138.247 0.00776986 132.694C-0.102933 127.142 0.970436 121.63 3.15631 116.525C5.09872 112.027 8.32752 108.205 12.4362 105.539C16.9505 102.785 22.1697 101.409 27.454 101.579C32.7593 101.395 38.0022 102.772 42.5338 105.539C46.6354 108.213 49.8621 112.033 51.8137 116.525C54.0127 121.627 55.0934 127.14 54.983 132.694C55.0934 138.249 54.0127 143.762 51.8137 148.863C49.8587 153.348 46.6322 157.161 42.5338 159.829C38.0081 162.592 32.773 163.969 27.4747 163.789ZM27.4747 157.943C31.6008 158.101 35.6766 156.994 39.1574 154.771C42.3361 152.57 44.7821 149.465 46.1795 145.858C47.8118 141.665 48.607 137.193 48.5202 132.694C48.6112 128.195 47.8159 123.723 46.1795 119.531C44.7741 115.94 42.3289 112.85 39.1574 110.659C35.6779 108.427 31.6056 107.3 27.4747 107.425C23.3589 107.269 19.2949 108.384 15.8333 110.618C12.6742 112.83 10.2443 115.933 8.85269 119.531C7.21901 123.725 6.41015 128.194 6.47057 132.694C6.35451 137.178 7.13629 141.64 8.76983 145.816C10.1826 149.403 12.6263 152.491 15.7919 154.688C19.2666 156.933 23.3408 158.068 27.4747 157.943ZM113.542 162.545L113.583 133.151C113.667 131.669 113.455 130.186 112.961 128.788C112.466 127.389 111.699 126.103 110.704 125.004C109.758 124.028 108.62 123.26 107.361 122.749C106.101 122.239 104.75 121.997 103.392 122.039C101.682 122.045 99.9954 122.442 98.4619 123.2C96.8041 124.026 95.4275 125.324 94.5055 126.932C93.3825 128.993 92.8452 131.323 92.952 133.669L89.327 132.632C89.1949 129.695 89.8682 126.777 91.2741 124.195C92.5586 121.844 94.4742 119.898 96.8048 118.578C99.2542 117.215 102.019 116.521 104.821 116.567C106.812 116.472 108.801 116.792 110.662 117.505C112.523 118.219 114.216 119.311 115.634 120.713C117.025 122.224 118.101 123.998 118.798 125.931C119.496 127.864 119.8 129.917 119.694 131.969L119.652 162.545H113.542ZM60.1615 162.545V117.769H65.6301V128.797H66.2929V162.545H60.1615ZM86.9242 162.545L86.9656 133.565C87.1369 130.493 86.1208 127.472 84.1278 125.128C83.1796 124.1 82.0203 123.29 80.7294 122.753C79.4386 122.216 78.0468 121.966 76.65 122.019C75.2412 121.972 73.8392 122.235 72.5434 122.79C71.2476 123.345 70.0896 124.179 69.1515 125.232C67.1626 127.579 66.1406 130.595 66.2929 133.669L62.6679 131.679C62.6257 128.964 63.3278 126.29 64.6979 123.947C66.0323 121.685 67.9496 119.823 70.2493 118.557C72.6991 117.218 75.4543 116.54 78.245 116.588C80.8927 116.54 83.5089 117.168 85.847 118.412C88.0602 119.623 89.8737 121.453 91.067 123.677C92.4091 126.296 93.0648 129.213 92.9727 132.155L92.9313 162.545H86.9242ZM159.714 162.545V139.701C159.733 137.395 159.496 135.094 159.009 132.84C158.598 130.892 157.833 129.037 156.751 127.367C155.746 125.832 154.362 124.583 152.733 123.739C150.87 122.833 148.816 122.392 146.747 122.454C144.79 122.414 142.847 122.796 141.05 123.573C139.433 124.299 138.013 125.401 136.907 126.787C135.732 128.295 134.866 130.021 134.359 131.865C133.75 134.079 133.457 136.368 133.489 138.665L129.181 137.711C129.052 133.719 129.876 129.754 131.584 126.144C133.041 123.175 135.349 120.707 138.212 119.054C141.176 117.414 144.52 116.585 147.906 116.65C150.306 116.599 152.692 117.022 154.929 117.894C156.835 118.659 158.568 119.801 160.024 121.252C161.416 122.658 162.558 124.291 163.401 126.082C164.264 127.916 164.891 129.852 165.265 131.845C165.649 133.846 165.843 135.88 165.845 137.918V162.545H159.714ZM127.358 162.545V117.769H132.868V128.797H133.489V162.545H127.358ZM174.379 109.27V102.429L180.428 102.471L180.469 109.27H174.379ZM174.379 162.545V117.769H180.428L180.469 162.545H174.379Z" fill="white"/>
<path d="M0.00756836 232.756L20.5767 173.055H28.6552L49.1829 232.756H42.8443L23.3317 176.455H25.7345L6.34609 232.756H0.00756836ZM9.18392 218.287V212.545H40.0065V218.246L9.18392 218.287ZM77.934 232.756C75.4912 233.275 72.9927 233.484 70.4977 233.378C68.232 233.317 66.0034 232.788 63.952 231.823C62.0419 230.893 60.5017 229.345 59.5813 227.429C58.8029 225.858 58.3586 224.143 58.2764 222.391C58.2073 220.692 58.1728 218.75 58.1728 216.566V175.543H64.2213V216.297C64.2213 218.176 64.242 219.745 64.2835 221.003C64.3007 222.166 64.5917 223.31 65.1327 224.34C65.5974 225.235 66.2715 226.004 67.0975 226.581C67.9235 227.159 68.8769 227.528 69.8763 227.657C72.5583 228.004 75.2785 227.92 77.934 227.408V232.756ZM48.6029 193.204V187.98H77.934V193.204H48.6029ZM106.147 232.756C103.704 233.275 101.205 233.484 98.7103 233.378C96.4446 233.317 94.216 232.788 92.1646 231.823C90.2545 230.893 88.7143 229.345 87.794 227.429C87.0155 225.858 86.5712 224.143 86.489 222.391C86.4199 220.692 86.3854 218.75 86.3854 216.566V175.543H92.4339V216.297C92.4339 218.176 92.4546 219.745 92.4961 221.003C92.5133 222.166 92.8043 223.31 93.3453 224.34C93.81 225.235 94.4841 226.004 95.3101 226.581C96.1361 227.159 97.0895 227.528 98.0889 227.657C100.771 228.004 103.491 227.92 106.147 227.408V232.756ZM76.8155 193.204V187.98H106.147V193.204H76.8155ZM130.879 234C126.907 234.102 122.984 233.097 119.549 231.098C116.337 229.138 113.756 226.295 112.112 222.91C110.269 219.058 109.361 214.825 109.461 210.555C109.345 206.184 110.23 201.844 112.05 197.868C113.657 194.467 116.22 191.607 119.424 189.639C122.816 187.643 126.698 186.638 130.631 186.737C134.618 186.618 138.552 187.678 141.941 189.784C145.127 191.907 147.591 194.951 149.004 198.511C150.695 202.821 151.444 207.444 151.2 212.068H144.986V209.912C145.216 205.238 143.898 200.618 141.236 196.77C139.961 195.269 138.353 194.086 136.541 193.316C134.728 192.546 132.761 192.21 130.796 192.334C128.721 192.205 126.645 192.559 124.729 193.369C122.814 194.178 121.111 195.42 119.756 196.998C116.97 200.868 115.616 205.588 115.924 210.348C115.632 215.035 116.988 219.677 119.756 223.469C121.085 225.035 122.759 226.271 124.646 227.08C126.533 227.889 128.581 228.25 130.631 228.133C133.58 228.202 136.489 227.433 139.02 225.915C141.473 224.368 143.434 222.153 144.675 219.531L150.371 221.728C148.736 225.47 146.006 228.628 142.541 230.787C139.039 232.947 134.993 234.062 130.879 234ZM113.79 212.068V206.969H147.968V212.068H113.79ZM188.361 232.756V209.912C188.38 207.606 188.144 205.305 187.657 203.051C187.245 201.104 186.48 199.249 185.399 197.578C184.393 196.044 183.009 194.794 181.38 193.951C179.524 193.048 177.478 192.607 175.415 192.665C173.458 192.626 171.515 193.007 169.718 193.785C168.101 194.51 166.681 195.612 165.575 196.998C164.4 198.506 163.534 200.232 163.028 202.076C162.418 204.29 162.125 206.58 162.158 208.876L157.849 207.922C157.72 203.93 158.544 199.965 160.252 196.355C161.709 193.386 164.017 190.918 166.88 189.266C169.844 187.625 173.188 186.796 176.575 186.861C178.974 186.81 181.36 187.233 183.597 188.105C185.503 188.871 187.236 190.013 188.692 191.463C190.085 192.869 191.226 194.502 192.069 196.293C192.933 198.127 193.559 200.063 193.933 202.056C194.317 204.058 194.511 206.091 194.513 208.13V232.756H188.361ZM156.026 232.756V187.98H161.536V199.009H162.158V232.756H156.026ZM226.578 232.756C224.136 233.275 221.637 233.484 219.142 233.378C216.876 233.317 214.648 232.788 212.596 231.823C210.686 230.893 209.146 229.345 208.226 227.429C207.447 225.858 207.003 224.143 206.921 222.391C206.852 220.692 206.817 218.75 206.817 216.566V175.543H212.866V216.297C212.866 218.176 212.886 219.745 212.928 221.003C212.945 222.166 213.236 223.31 213.777 224.34C214.242 225.235 214.916 226.004 215.742 226.581C216.568 227.159 217.521 227.528 218.521 227.657C221.203 228.004 223.923 227.92 226.578 227.408V232.756ZM197.247 193.204V187.98H226.578V193.204H197.247ZM233.166 179.481V172.641L239.214 172.682L239.256 179.481H233.166ZM233.166 232.756V187.98H239.214L239.256 232.756H233.166ZM267.302 234C263.292 234.118 259.334 233.067 255.91 230.973C252.742 228.934 250.226 226.027 248.66 222.599C246.915 218.747 246.051 214.555 246.133 210.327C246.046 206.065 246.931 201.84 248.722 197.972C250.311 194.562 252.85 191.683 256.034 189.68C259.439 187.638 263.355 186.61 267.323 186.716C271.351 186.596 275.327 187.64 278.778 189.722C281.951 191.737 284.47 194.633 286.028 198.055C287.761 201.902 288.617 206.087 288.534 210.306C288.626 214.568 287.762 218.797 286.007 222.682C284.433 226.096 281.9 228.977 278.716 230.973C275.278 233.052 271.318 234.102 267.302 234ZM267.302 228.154C269.418 228.307 271.538 227.934 273.474 227.07C275.411 226.206 277.105 224.876 278.405 223.2C280.971 219.413 282.243 214.897 282.03 210.327C282.277 205.721 280.987 201.163 278.364 197.371C277.04 195.735 275.341 194.444 273.412 193.606C271.482 192.769 269.379 192.411 267.282 192.562C264.353 192.439 261.458 193.228 258.996 194.821C256.79 196.375 255.102 198.556 254.149 201.081C253.036 204.027 252.495 207.158 252.554 210.306C252.322 214.92 253.634 219.479 256.283 223.262C257.587 224.909 259.271 226.215 261.19 227.067C263.11 227.919 265.207 228.292 267.302 228.154ZM326.876 232.756V209.912C326.895 207.606 326.659 205.305 326.172 203.051C325.761 201.104 324.995 199.249 323.914 197.578C322.908 196.044 321.524 194.794 319.896 193.951C318.033 193.045 315.979 192.604 313.909 192.665C311.952 192.626 310.01 193.007 308.213 193.785C306.596 194.51 305.176 195.612 304.07 196.998C302.895 198.506 302.029 200.232 301.522 202.076C300.913 204.29 300.62 206.58 300.652 208.876L296.344 207.922C296.215 203.93 297.039 199.965 298.746 196.355C300.209 193.383 302.524 190.915 305.396 189.266C308.36 187.625 311.703 186.796 315.09 186.861C317.489 186.81 319.876 187.233 322.112 188.105C324.019 188.871 325.752 190.013 327.208 191.463C328.6 192.869 329.742 194.502 330.584 196.293C331.448 198.127 332.074 200.063 332.448 202.056C332.832 204.058 333.026 206.091 333.028 208.13V232.756H326.876ZM294.521 232.756V187.98H300.031V199.009H300.652V232.756H294.521Z" fill="white"/>
<defs>
<linearGradient id="paint0_linear_1081_2" x1="48.4369" y1="49.7197" x2="48.4369" y2="81.8505" gradientUnits="userSpaceOnUse">
<stop stop-color="#FF7621"/>
<stop offset="1" stop-color="#CBA200"/>
</linearGradient>
<linearGradient id="paint1_linear_1081_2" x1="47.4947" y1="2.2244" x2="47.4947" y2="82.3851" gradientUnits="userSpaceOnUse">
<stop stop-color="#21AAFF"/>
<stop offset="1" stop-color="#005EEB"/>
</linearGradient>
</defs>
</svg>
