<svg width="374" height="73" viewBox="0 0 374 73" fill="none" xmlns="http://www.w3.org/2000/svg">
<path d="M33.6818 38.4276C33.6818 42.1094 33.017 45.2912 31.6875 47.973C30.358 50.6548 28.5341 52.723 26.2159 54.1776C23.8977 55.6321 21.25 56.3594 18.2727 56.3594C15.2955 56.3594 12.6477 55.6321 10.3295 54.1776C8.01136 52.723 6.1875 50.6548 4.85795 47.973C3.52841 45.2912 2.86364 42.1094 2.86364 38.4276C2.86364 34.7457 3.52841 31.5639 4.85795 28.8821C6.1875 26.2003 8.01136 24.1321 10.3295 22.6776C12.6477 21.223 15.2955 20.4957 18.2727 20.4957C21.25 20.4957 23.8977 21.223 26.2159 22.6776C28.5341 24.1321 30.358 26.2003 31.6875 28.8821C33.017 31.5639 33.6818 34.7457 33.6818 38.4276ZM29.5909 38.4276C29.5909 35.4048 29.0852 32.8537 28.0739 30.7742C27.0739 28.6946 25.7159 27.1207 24 26.0526C22.2955 24.9844 20.3864 24.4503 18.2727 24.4503C16.1591 24.4503 14.2443 24.9844 12.5284 26.0526C10.8239 27.1207 9.46591 28.6946 8.45455 30.7742C7.45455 32.8537 6.95455 35.4048 6.95455 38.4276C6.95455 41.4503 7.45455 44.0014 8.45455 46.081C9.46591 48.1605 10.8239 49.7344 12.5284 50.8026C14.2443 51.8707 16.1591 52.4048 18.2727 52.4048C20.3864 52.4048 22.2955 51.8707 24 50.8026C25.7159 49.7344 27.0739 48.1605 28.0739 46.081C29.0852 44.0014 29.5909 41.4503 29.5909 38.4276ZM44.267 40.1321V55.8821H40.2443V29.7003H44.1307V33.7912H44.4716C45.0852 32.4617 46.017 31.3935 47.267 30.5867C48.517 29.7685 50.1307 29.3594 52.108 29.3594C53.8807 29.3594 55.4318 29.723 56.7614 30.4503C58.0909 31.1662 59.125 32.2571 59.8636 33.723C60.6023 35.1776 60.9716 37.0185 60.9716 39.2457V55.8821H56.9489V39.5185C56.9489 37.4617 56.4148 35.8594 55.3466 34.7117C54.2784 33.5526 52.8125 32.973 50.9489 32.973C49.6648 32.973 48.517 33.2514 47.5057 33.8082C46.5057 34.3651 45.7159 35.1776 45.1364 36.2457C44.5568 37.3139 44.267 38.6094 44.267 40.1321ZM79.7088 29.7003V33.1094H66.1406V29.7003H79.7088ZM70.0952 23.4276H74.1179V48.3821C74.1179 49.5185 74.2827 50.3707 74.6122 50.9389C74.9531 51.4957 75.3849 51.8707 75.9077 52.0639C76.4418 52.2457 77.0043 52.3367 77.5952 52.3367C78.0384 52.3367 78.402 52.3139 78.6861 52.2685C78.9702 52.2117 79.1974 52.1662 79.3679 52.1321L80.1861 55.7457C79.9134 55.848 79.5327 55.9503 79.044 56.0526C78.5554 56.1662 77.9361 56.223 77.1861 56.223C76.0497 56.223 74.9361 55.9787 73.8452 55.4901C72.7656 55.0014 71.8679 54.2571 71.152 53.2571C70.4474 52.2571 70.0952 50.9957 70.0952 49.473V23.4276ZM93.4645 56.4957C91.8054 56.4957 90.2997 56.1832 88.9474 55.5582C87.5952 54.9219 86.5213 54.0071 85.7259 52.8139C84.9304 51.6094 84.5327 50.1548 84.5327 48.4503C84.5327 46.9503 84.8281 45.7344 85.419 44.8026C86.0099 43.8594 86.7997 43.1207 87.7884 42.5867C88.777 42.0526 89.8679 41.6548 91.0611 41.3935C92.2656 41.1207 93.4759 40.9048 94.6918 40.7457C96.2827 40.5412 97.5724 40.3878 98.5611 40.2855C99.5611 40.1719 100.288 39.9844 100.743 39.723C101.209 39.4617 101.442 39.0071 101.442 38.3594V38.223C101.442 36.5412 100.982 35.2344 100.061 34.3026C99.152 33.3707 97.7713 32.9048 95.919 32.9048C93.9986 32.9048 92.4929 33.3253 91.402 34.1662C90.3111 35.0071 89.544 35.9048 89.1009 36.8594L85.2827 35.4957C85.9645 33.9048 86.8736 32.6662 88.0099 31.7798C89.1577 30.8821 90.4077 30.2571 91.7599 29.9048C93.1236 29.5412 94.4645 29.3594 95.7827 29.3594C96.6236 29.3594 97.5895 29.4617 98.6804 29.6662C99.7827 29.8594 100.845 30.2628 101.868 30.8764C102.902 31.4901 103.76 32.4162 104.442 33.6548C105.124 34.8935 105.464 36.5526 105.464 38.6321V55.8821H101.442V52.3367H101.237C100.964 52.9048 100.51 53.5128 99.8736 54.1605C99.2372 54.8082 98.3906 55.3594 97.3338 55.8139C96.277 56.2685 94.9872 56.4957 93.4645 56.4957ZM94.0781 52.8821C95.669 52.8821 97.0099 52.5696 98.1009 51.9446C99.2031 51.3196 100.033 50.5128 100.589 49.5242C101.158 48.5355 101.442 47.4957 101.442 46.4048V42.723C101.271 42.9276 100.896 43.1151 100.317 43.2855C99.7486 43.4446 99.0895 43.5867 98.3395 43.7117C97.6009 43.8253 96.8793 43.9276 96.1747 44.0185C95.4815 44.098 94.919 44.1662 94.4872 44.223C93.4418 44.3594 92.4645 44.581 91.5554 44.8878C90.6577 45.1832 89.9304 45.6321 89.3736 46.2344C88.8281 46.8253 88.5554 47.6321 88.5554 48.6548C88.5554 50.0526 89.0724 51.1094 90.1065 51.8253C91.152 52.5298 92.4759 52.8821 94.0781 52.8821ZM112.807 55.8821V29.7003H116.693V33.6548H116.966C117.443 32.3594 118.307 31.3082 119.557 30.5014C120.807 29.6946 122.216 29.2912 123.784 29.2912C124.08 29.2912 124.449 29.2969 124.892 29.3082C125.335 29.3196 125.67 29.3367 125.898 29.3594V33.4503C125.761 33.4162 125.449 33.3651 124.96 33.2969C124.483 33.2173 123.977 33.1776 123.443 33.1776C122.17 33.1776 121.034 33.4446 120.034 33.9787C119.045 34.5014 118.261 35.2287 117.682 36.1605C117.114 37.081 116.83 38.1321 116.83 39.3139V55.8821H112.807ZM130.666 55.8821V29.7003H134.689V55.8821H130.666ZM132.712 25.3367C131.928 25.3367 131.251 25.0696 130.683 24.5355C130.126 24.0014 129.848 23.3594 129.848 22.6094C129.848 21.8594 130.126 21.2173 130.683 20.6832C131.251 20.1492 131.928 19.8821 132.712 19.8821C133.496 19.8821 134.166 20.1492 134.723 20.6832C135.291 21.2173 135.575 21.8594 135.575 22.6094C135.575 23.3594 135.291 24.0014 134.723 24.5355C134.166 25.0696 133.496 25.3367 132.712 25.3367ZM152.693 56.4276C150.33 56.4276 148.256 55.8651 146.472 54.7401C144.699 53.6151 143.312 52.0412 142.312 50.0185C141.324 47.9957 140.83 45.6321 140.83 42.9276C140.83 40.2003 141.324 37.8196 142.312 35.7855C143.312 33.7514 144.699 32.1719 146.472 31.0469C148.256 29.9219 150.33 29.3594 152.693 29.3594C155.057 29.3594 157.125 29.9219 158.898 31.0469C160.682 32.1719 162.068 33.7514 163.057 35.7855C164.057 37.8196 164.557 40.2003 164.557 42.9276C164.557 45.6321 164.057 47.9957 163.057 50.0185C162.068 52.0412 160.682 53.6151 158.898 54.7401C157.125 55.8651 155.057 56.4276 152.693 56.4276ZM152.693 52.8139C154.489 52.8139 155.966 52.3537 157.125 51.4332C158.284 50.5128 159.142 49.3026 159.699 47.8026C160.256 46.3026 160.534 44.6776 160.534 42.9276C160.534 41.1776 160.256 39.5469 159.699 38.0355C159.142 36.5242 158.284 35.3026 157.125 34.3707C155.966 33.4389 154.489 32.973 152.693 32.973C150.898 32.973 149.42 33.4389 148.261 34.3707C147.102 35.3026 146.244 36.5242 145.688 38.0355C145.131 39.5469 144.852 41.1776 144.852 42.9276C144.852 44.6776 145.131 46.3026 145.688 47.8026C146.244 49.3026 147.102 50.5128 148.261 51.4332C149.42 52.3537 150.898 52.8139 152.693 52.8139Z" fill="white"/>
<path d="M176.034 55.8821V20.973H189.807C192.455 20.973 194.71 21.4787 196.574 22.4901C198.438 23.4901 199.858 24.8821 200.835 26.6662C201.824 28.4389 202.318 30.4844 202.318 32.8026C202.318 35.1207 201.818 37.1662 200.818 38.9389C199.818 40.7117 198.369 42.0923 196.472 43.081C194.585 44.0696 192.301 44.5639 189.619 44.5639H180.841V38.6492H188.426C189.847 38.6492 191.017 38.4048 191.938 37.9162C192.869 37.4162 193.563 36.7287 194.017 35.8537C194.483 34.9673 194.716 33.9503 194.716 32.8026C194.716 31.6435 194.483 30.6321 194.017 29.7685C193.563 28.8935 192.869 28.2173 191.938 27.7401C191.006 27.2514 189.824 27.0071 188.392 27.0071H183.415V55.8821H176.034ZM223.766 44.7344V29.7003H231.027V55.8821H224.055V51.1264H223.783C223.192 52.6605 222.209 53.8935 220.834 54.8253C219.47 55.7571 217.805 56.223 215.839 56.223C214.089 56.223 212.55 55.8253 211.22 55.0298C209.891 54.2344 208.851 53.1037 208.101 51.6378C207.362 50.1719 206.987 48.4162 206.976 46.3707V29.7003H214.237V45.0753C214.249 46.6207 214.663 47.8423 215.482 48.7401C216.3 49.6378 217.396 50.0867 218.771 50.0867C219.646 50.0867 220.464 49.8878 221.226 49.4901C221.987 49.081 222.601 48.4787 223.067 47.6832C223.544 46.8878 223.777 45.9048 223.766 44.7344ZM244.097 20.973V55.8821H236.835V20.973H244.097ZM271.697 37.1662L265.05 37.5753C264.936 37.0071 264.692 36.4957 264.317 36.0412C263.942 35.5753 263.447 35.206 262.834 34.9332C262.232 34.6492 261.51 34.5071 260.669 34.5071C259.544 34.5071 258.595 34.7457 257.822 35.223C257.05 35.6889 256.663 36.3139 256.663 37.098C256.663 37.723 256.913 38.2514 257.413 38.6832C257.913 39.1151 258.771 39.4617 259.987 39.723L264.726 40.6776C267.271 41.2003 269.169 42.0412 270.419 43.2003C271.669 44.3594 272.294 45.8821 272.294 47.7685C272.294 49.4844 271.788 50.9901 270.777 52.2855C269.777 53.581 268.402 54.5923 266.652 55.3196C264.913 56.0355 262.908 56.3935 260.635 56.3935C257.169 56.3935 254.408 55.6719 252.351 54.2287C250.305 52.7742 249.107 50.7969 248.754 48.2969L255.896 47.9219C256.112 48.9787 256.635 49.7855 257.464 50.3423C258.294 50.8878 259.357 51.1605 260.652 51.1605C261.925 51.1605 262.947 50.9162 263.72 50.4276C264.504 49.9276 264.902 49.2855 264.913 48.5014C264.902 47.8423 264.624 47.3026 264.078 46.8821C263.533 46.4503 262.692 46.1207 261.555 45.8935L257.021 44.9901C254.464 44.4787 252.561 43.5923 251.311 42.331C250.072 41.0696 249.453 39.4617 249.453 37.5071C249.453 35.8253 249.908 34.3764 250.817 33.1605C251.737 31.9446 253.027 31.0071 254.686 30.348C256.357 29.6889 258.311 29.3594 260.55 29.3594C263.857 29.3594 266.459 30.0582 268.357 31.456C270.266 32.8537 271.379 34.7571 271.697 37.1662ZM288.798 56.3935C286.105 56.3935 283.787 55.848 281.844 54.7571C279.912 53.6548 278.423 52.098 277.378 50.0867C276.332 48.0639 275.81 45.6719 275.81 42.9105C275.81 40.2173 276.332 37.8537 277.378 35.8196C278.423 33.7855 279.895 32.2003 281.793 31.0639C283.702 29.9276 285.94 29.3594 288.509 29.3594C290.236 29.3594 291.844 29.6378 293.332 30.1946C294.832 30.7401 296.139 31.5639 297.253 32.6662C298.378 33.7685 299.253 35.1548 299.878 36.8253C300.503 38.4844 300.815 40.4276 300.815 42.6548V44.6492H278.707V40.1492H293.98C293.98 39.1037 293.753 38.1776 293.298 37.3707C292.844 36.5639 292.213 35.9332 291.406 35.4787C290.611 35.0128 289.685 34.7798 288.628 34.7798C287.526 34.7798 286.548 35.0355 285.696 35.5469C284.855 36.0469 284.196 36.723 283.719 37.5753C283.241 38.4162 282.997 39.3537 282.986 40.3878V44.6662C282.986 45.9617 283.224 47.081 283.702 48.0242C284.19 48.9673 284.878 49.6946 285.764 50.206C286.651 50.7173 287.702 50.973 288.918 50.973C289.724 50.973 290.463 50.8594 291.134 50.6321C291.804 50.4048 292.378 50.0639 292.855 49.6094C293.332 49.1548 293.696 48.598 293.946 47.9389L300.662 48.3821C300.321 49.9957 299.622 51.4048 298.565 52.6094C297.52 53.8026 296.168 54.7344 294.509 55.4048C292.861 56.0639 290.957 56.3935 288.798 56.3935Z" fill="url(#paint0_linear_55_2)"/>
<path fill-rule="evenodd" clip-rule="evenodd" d="M343.211 18.8925L339.396 0L333.546 18.3643L332.969 20.175L345.206 72.8892L350.605 59.7871L355.648 47.5488H369H374V37.5488H369H352.301H348.953L347.678 40.6438L347.627 40.7666L343.211 18.8925ZM334.19 47.5488L330 29.4953L327.434 37.5488H318H313V47.5488H318H331.088H334.19Z" fill="url(#paint1_linear_55_2)"/>
<defs>
<linearGradient id="paint0_linear_55_2" x1="298" y1="38.8821" x2="173" y2="38.8821" gradientUnits="userSpaceOnUse">
<stop stop-color="#FF0000"/>
<stop offset="1" stop-color="#990000"/>
</linearGradient>
<linearGradient id="paint1_linear_55_2" x1="313" y1="42.4259" x2="374" y2="42.4259" gradientUnits="userSpaceOnUse">
<stop stop-color="#FF0000"/>
<stop offset="1" stop-color="#520000"/>
</linearGradient>
</defs>
</svg>
