<svg width="251" height="123" viewBox="0 0 251 123" fill="none" xmlns="http://www.w3.org/2000/svg">
<path d="M3.03409 75V40.0909H16.8068C19.4432 40.0909 21.6932 40.5625 23.5568 41.5057C25.4318 42.4375 26.858 43.7614 27.8352 45.4773C28.8239 47.1818 29.3182 49.1875 29.3182 51.4943C29.3182 53.8125 28.8182 55.8068 27.8182 57.4773C26.8182 59.1364 25.3693 60.4091 23.4716 61.2955C21.5852 62.1818 19.3011 62.625 16.6193 62.625H7.39773V56.6932H15.4261C16.8352 56.6932 18.0057 56.5 18.9375 56.1136C19.8693 55.7273 20.5625 55.1477 21.017 54.375C21.483 53.6023 21.7159 52.642 21.7159 51.4943C21.7159 50.3352 21.483 49.358 21.017 48.5625C20.5625 47.767 19.8636 47.1648 18.9205 46.7557C17.9886 46.3352 16.8125 46.125 15.392 46.125H10.4148V75H3.03409ZM21.8864 59.1136L30.5625 75H22.4148L13.9261 59.1136H21.8864ZM45.9077 75.5114C43.2145 75.5114 40.8963 74.9659 38.9531 73.875C37.0213 72.7727 35.5327 71.2159 34.4872 69.2045C33.4418 67.1818 32.919 64.7898 32.919 62.0284C32.919 59.3352 33.4418 56.9716 34.4872 54.9375C35.5327 52.9034 37.0043 51.3182 38.902 50.1818C40.8111 49.0455 43.0497 48.4773 45.6179 48.4773C47.3452 48.4773 48.9531 48.7557 50.4418 49.3125C51.9418 49.858 53.2486 50.6818 54.3622 51.7841C55.4872 52.8864 56.3622 54.2727 56.9872 55.9432C57.6122 57.6023 57.9247 59.5455 57.9247 61.7727V63.767H35.8168V59.267H51.0895C51.0895 58.2216 50.8622 57.2955 50.4077 56.4886C49.9531 55.6818 49.3224 55.0511 48.5156 54.5966C47.7202 54.1307 46.794 53.8977 45.7372 53.8977C44.6349 53.8977 43.6577 54.1534 42.8054 54.6648C41.9645 55.1648 41.3054 55.8409 40.8281 56.6932C40.3509 57.5341 40.1065 58.4716 40.0952 59.5057V63.7841C40.0952 65.0795 40.3338 66.1989 40.8111 67.142C41.2997 68.0852 41.9872 68.8125 42.8736 69.3239C43.7599 69.8352 44.8111 70.0909 46.027 70.0909C46.8338 70.0909 47.5724 69.9773 48.2429 69.75C48.9134 69.5227 49.4872 69.1818 49.9645 68.7273C50.4418 68.2727 50.8054 67.7159 51.0554 67.0568L57.7713 67.5C57.4304 69.1136 56.7315 70.5227 55.6747 71.7273C54.6293 72.9205 53.277 73.8523 51.6179 74.5227C49.9702 75.1818 48.0668 75.5114 45.9077 75.5114ZM72.3111 75.4261C70.3224 75.4261 68.5213 74.9148 66.9077 73.892C65.3054 72.858 64.0327 71.3409 63.0895 69.3409C62.1577 67.3295 61.6918 64.8636 61.6918 61.9432C61.6918 58.9432 62.1747 56.4489 63.1406 54.4602C64.1065 52.4602 65.3906 50.9659 66.9929 49.9773C68.6065 48.9773 70.3736 48.4773 72.294 48.4773C73.7599 48.4773 74.9815 48.7273 75.9588 49.2273C76.9474 49.7159 77.7429 50.3295 78.3452 51.0682C78.9588 51.7955 79.4247 52.5114 79.7429 53.2159H79.9645V40.0909H87.2088V75H80.0497V70.8068H79.7429C79.402 71.5341 78.919 72.2557 78.294 72.9716C77.6804 73.6761 76.8793 74.2614 75.8906 74.7273C74.9134 75.1932 73.7202 75.4261 72.3111 75.4261ZM74.6122 69.6477C75.7827 69.6477 76.7713 69.3295 77.5781 68.6932C78.3963 68.0455 79.0213 67.142 79.4531 65.983C79.8963 64.8239 80.1179 63.4659 80.1179 61.9091C80.1179 60.3523 79.902 59 79.4702 57.8523C79.0384 56.7045 78.4134 55.8182 77.5952 55.1932C76.777 54.5682 75.7827 54.2557 74.6122 54.2557C73.419 54.2557 72.4134 54.5795 71.5952 55.2273C70.777 55.875 70.1577 56.7727 69.7372 57.9205C69.3168 59.0682 69.1065 60.3977 69.1065 61.9091C69.1065 63.4318 69.3168 64.7784 69.7372 65.9489C70.169 67.108 70.7884 68.017 71.5952 68.6761C72.4134 69.3239 73.419 69.6477 74.6122 69.6477ZM104.425 75V40.0909H118.197C120.845 40.0909 123.101 40.5966 124.964 41.608C126.828 42.608 128.249 44 129.226 45.7841C130.214 47.5568 130.709 49.6023 130.709 51.9205C130.709 54.2386 130.209 56.2841 129.209 58.0568C128.209 59.8295 126.76 61.2102 124.862 62.1989C122.976 63.1875 120.692 63.6818 118.01 63.6818H109.232V57.767H116.817C118.237 57.767 119.408 57.5227 120.328 57.0341C121.26 56.5341 121.953 55.8466 122.408 54.9716C122.874 54.0852 123.107 53.0682 123.107 51.9205C123.107 50.7614 122.874 49.75 122.408 48.8864C121.953 48.0114 121.26 47.3352 120.328 46.858C119.396 46.3693 118.214 46.125 116.783 46.125H111.805V75H104.425ZM142.628 40.0909V75H135.366V40.0909H142.628ZM155.911 75.4943C154.24 75.4943 152.751 75.2045 151.445 74.625C150.138 74.0341 149.104 73.1648 148.342 72.017C147.592 70.858 147.217 69.4148 147.217 67.6875C147.217 66.233 147.484 65.0114 148.018 64.0227C148.553 63.0341 149.28 62.2386 150.2 61.6364C151.121 61.0341 152.166 60.5795 153.337 60.2727C154.518 59.9659 155.757 59.75 157.053 59.625C158.575 59.4659 159.803 59.3182 160.734 59.1818C161.666 59.0341 162.342 58.8182 162.763 58.5341C163.183 58.25 163.393 57.8295 163.393 57.2727V57.1705C163.393 56.0909 163.053 55.2557 162.371 54.6648C161.7 54.0739 160.746 53.7784 159.507 53.7784C158.2 53.7784 157.161 54.0682 156.388 54.6477C155.615 55.2159 155.104 55.9318 154.854 56.7955L148.138 56.25C148.479 54.6591 149.149 53.2841 150.149 52.125C151.149 50.9545 152.439 50.0568 154.018 49.4318C155.609 48.7955 157.45 48.4773 159.541 48.4773C160.996 48.4773 162.388 48.6477 163.717 48.9886C165.058 49.3295 166.246 49.858 167.28 50.5739C168.325 51.2898 169.149 52.2102 169.751 53.3352C170.354 54.4489 170.655 55.7841 170.655 57.3409V75H163.768V71.3693H163.564C163.143 72.1875 162.581 72.9091 161.876 73.5341C161.172 74.1477 160.325 74.6307 159.337 74.983C158.348 75.3239 157.206 75.4943 155.911 75.4943ZM157.99 70.483C159.058 70.483 160.001 70.2727 160.82 69.8523C161.638 69.4205 162.28 68.8409 162.746 68.1136C163.212 67.3864 163.445 66.5625 163.445 65.642V62.8636C163.217 63.0114 162.905 63.1477 162.507 63.2727C162.121 63.3864 161.683 63.4943 161.195 63.5966C160.706 63.6875 160.217 63.7727 159.729 63.8523C159.24 63.9205 158.797 63.983 158.399 64.0398C157.547 64.1648 156.803 64.3636 156.166 64.6364C155.53 64.9091 155.036 65.2784 154.683 65.7443C154.331 66.1989 154.155 66.767 154.155 67.4489C154.155 68.4375 154.513 69.1932 155.229 69.7159C155.956 70.2273 156.876 70.483 157.99 70.483ZM183.55 59.8636V75H176.288V48.8182H183.209V53.4375H183.516C184.095 51.9148 185.067 50.7102 186.43 49.8239C187.794 48.9261 189.447 48.4773 191.391 48.4773C193.209 48.4773 194.794 48.875 196.146 49.6705C197.499 50.4659 198.55 51.6023 199.3 53.0795C200.05 54.5455 200.425 56.2955 200.425 58.3295V75H193.163V59.625C193.175 58.0227 192.766 56.7727 191.936 55.875C191.107 54.9659 189.964 54.5114 188.51 54.5114C187.533 54.5114 186.669 54.7216 185.919 55.142C185.18 55.5625 184.601 56.1761 184.18 56.983C183.771 57.7784 183.561 58.7386 183.55 59.8636ZM218.08 75.5114C215.386 75.5114 213.068 74.9659 211.125 73.875C209.193 72.7727 207.705 71.2159 206.659 69.2045C205.614 67.1818 205.091 64.7898 205.091 62.0284C205.091 59.3352 205.614 56.9716 206.659 54.9375C207.705 52.9034 209.176 51.3182 211.074 50.1818C212.983 49.0455 215.222 48.4773 217.79 48.4773C219.517 48.4773 221.125 48.7557 222.614 49.3125C224.114 49.858 225.42 50.6818 226.534 51.7841C227.659 52.8864 228.534 54.2727 229.159 55.9432C229.784 57.6023 230.097 59.5455 230.097 61.7727V63.767H207.989V59.267H223.261C223.261 58.2216 223.034 57.2955 222.58 56.4886C222.125 55.6818 221.494 55.0511 220.688 54.5966C219.892 54.1307 218.966 53.8977 217.909 53.8977C216.807 53.8977 215.83 54.1534 214.977 54.6648C214.136 55.1648 213.477 55.8409 213 56.6932C212.523 57.5341 212.278 58.4716 212.267 59.5057V63.7841C212.267 65.0795 212.506 66.1989 212.983 67.142C213.472 68.0852 214.159 68.8125 215.045 69.3239C215.932 69.8352 216.983 70.0909 218.199 70.0909C219.006 70.0909 219.744 69.9773 220.415 69.75C221.085 69.5227 221.659 69.1818 222.136 68.7273C222.614 68.2727 222.977 67.7159 223.227 67.0568L229.943 67.5C229.602 69.1136 228.903 70.5227 227.847 71.7273C226.801 72.9205 225.449 73.8523 223.79 74.5227C222.142 75.1818 220.239 75.5114 218.08 75.5114ZM248.761 48.8182V54.2727H232.994V48.8182H248.761ZM236.574 42.5455H243.835V66.9545C243.835 67.625 243.938 68.1477 244.142 68.5227C244.347 68.8864 244.631 69.142 244.994 69.2898C245.369 69.4375 245.801 69.5114 246.29 69.5114C246.631 69.5114 246.972 69.483 247.312 69.4261C247.653 69.358 247.915 69.3068 248.097 69.2727L249.239 74.6761C248.875 74.7898 248.364 74.9205 247.705 75.0682C247.045 75.2273 246.244 75.3239 245.301 75.358C243.551 75.4261 242.017 75.1932 240.699 74.6591C239.392 74.125 238.375 73.2955 237.648 72.1705C236.92 71.0455 236.563 69.625 236.574 67.9091V42.5455Z" fill="#E81840"/>
<path d="M3.19602 114V84.9091H21.4347V88.6875H7.58523V97.5511H20.483V101.315H7.58523V110.222H21.6051V114H3.19602ZM26.9567 114V92.1818H31.0334V95.733H31.3033C31.7578 94.5303 32.5012 93.5928 33.5334 92.9205C34.5656 92.2386 35.8014 91.8977 37.2408 91.8977C38.6991 91.8977 39.9207 92.2386 40.9055 92.9205C41.8999 93.6023 42.6338 94.5398 43.1072 95.733H43.3345C43.8554 94.5682 44.6839 93.6402 45.8203 92.9489C46.9567 92.2481 48.3108 91.8977 49.8828 91.8977C51.862 91.8977 53.4766 92.518 54.7266 93.7585C55.986 94.9991 56.6158 96.8693 56.6158 99.3693V114H52.3686V99.767C52.3686 98.2898 51.9661 97.2197 51.1612 96.5568C50.3563 95.8939 49.3951 95.5625 48.2777 95.5625C46.8951 95.5625 45.8203 95.9886 45.0533 96.8409C44.2862 97.6837 43.9027 98.768 43.9027 100.094V114H39.6697V99.4972C39.6697 98.3134 39.3004 97.3617 38.5618 96.642C37.8232 95.9223 36.862 95.5625 35.6783 95.5625C34.8733 95.5625 34.13 95.7756 33.4482 96.2017C32.7758 96.6184 32.2313 97.2008 31.8146 97.9489C31.4074 98.697 31.2038 99.5634 31.2038 100.548V114H26.9567ZM62.3082 122.182V92.1818H66.456V95.7188H66.8111C67.0573 95.2642 67.4124 94.7386 67.8764 94.142C68.3404 93.5455 68.9844 93.0246 69.8082 92.5795C70.6321 92.125 71.7211 91.8977 73.0753 91.8977C74.8366 91.8977 76.4086 92.3428 77.7912 93.233C79.1738 94.1231 80.258 95.4062 81.044 97.0824C81.8395 98.7585 82.2372 100.776 82.2372 103.134C82.2372 105.491 81.8442 107.513 81.0582 109.199C80.2723 110.875 79.1927 112.168 77.8196 113.077C76.4465 113.976 74.8793 114.426 73.1179 114.426C71.7921 114.426 70.7079 114.204 69.8651 113.759C69.0317 113.313 68.3783 112.793 67.9048 112.196C67.4313 111.599 67.0668 111.069 66.8111 110.605H66.5554V122.182H62.3082ZM66.4702 103.091C66.4702 104.625 66.6927 105.97 67.1378 107.125C67.5829 108.28 68.2268 109.185 69.0696 109.838C69.9124 110.482 70.9446 110.804 72.1662 110.804C73.4351 110.804 74.4957 110.468 75.348 109.795C76.2003 109.114 76.8442 108.19 77.2798 107.026C77.7249 105.861 77.9474 104.549 77.9474 103.091C77.9474 101.652 77.7296 100.359 77.294 99.2131C76.8679 98.0672 76.224 97.1629 75.3622 96.5C74.5099 95.8371 73.4446 95.5057 72.1662 95.5057C70.9351 95.5057 69.8935 95.8229 69.0412 96.4574C68.1984 97.0919 67.5592 97.9773 67.1236 99.1136C66.688 100.25 66.4702 101.576 66.4702 103.091ZM86.9957 114V92.1818H91.2429V114H86.9957ZM89.1406 88.8153C88.402 88.8153 87.7675 88.5691 87.2372 88.0767C86.7164 87.5748 86.456 86.9782 86.456 86.2869C86.456 85.5862 86.7164 84.9896 87.2372 84.4972C87.7675 83.9953 88.402 83.7443 89.1406 83.7443C89.8793 83.7443 90.509 83.9953 91.0298 84.4972C91.5601 84.9896 91.8253 85.5862 91.8253 86.2869C91.8253 86.9782 91.5601 87.5748 91.0298 88.0767C90.509 88.5691 89.8793 88.8153 89.1406 88.8153ZM96.9567 114V92.1818H101.062V95.6477H101.289C101.687 94.4735 102.388 93.5502 103.391 92.8778C104.405 92.196 105.55 91.8551 106.829 91.8551C107.094 91.8551 107.406 91.8646 107.766 91.8835C108.136 91.9025 108.424 91.9261 108.633 91.9545V96.017C108.462 95.9697 108.159 95.9176 107.724 95.8608C107.288 95.7945 106.853 95.7614 106.417 95.7614C105.413 95.7614 104.518 95.9744 103.732 96.4006C102.956 96.8172 102.34 97.3996 101.886 98.1477C101.431 98.8864 101.204 99.7292 101.204 100.676V114H96.9567ZM120.93 114.44C118.781 114.44 116.929 113.981 115.376 113.062C113.833 112.134 112.64 110.832 111.797 109.156C110.964 107.471 110.547 105.496 110.547 103.233C110.547 100.998 110.964 99.0284 111.797 97.3239C112.64 95.6193 113.814 94.2888 115.32 93.3324C116.835 92.3759 118.606 91.8977 120.632 91.8977C121.863 91.8977 123.056 92.1013 124.212 92.5085C125.367 92.9157 126.404 93.5549 127.322 94.4261C128.241 95.2973 128.965 96.429 129.496 97.821C130.026 99.2036 130.291 100.884 130.291 102.864V104.369H112.947V101.188H126.129C126.129 100.07 125.902 99.0805 125.447 98.2188C124.993 97.3475 124.354 96.661 123.53 96.1591C122.715 95.6572 121.759 95.4062 120.661 95.4062C119.467 95.4062 118.426 95.6998 117.536 96.2869C116.655 96.8646 115.973 97.6222 115.49 98.5597C115.017 99.4877 114.78 100.496 114.78 101.585V104.071C114.78 105.529 115.036 106.77 115.547 107.793C116.068 108.815 116.792 109.597 117.72 110.136C118.648 110.667 119.732 110.932 120.973 110.932C121.778 110.932 122.512 110.818 123.175 110.591C123.838 110.354 124.411 110.004 124.893 109.54C125.376 109.076 125.746 108.503 126.001 107.821L130.021 108.545C129.699 109.729 129.122 110.766 128.288 111.656C127.464 112.537 126.428 113.223 125.178 113.716C123.937 114.199 122.521 114.44 120.93 114.44Z" fill="white"/>
<path d="M15 0L2.00962 7.5V22.5L15 30L27.9904 22.5V7.5L15 0Z" fill="url(#paint0_linear_36_2)"/>
<defs>
<linearGradient id="paint0_linear_36_2" x1="15" y1="0" x2="15" y2="30" gradientUnits="userSpaceOnUse">
<stop stop-color="#E81840"/>
<stop offset="1"/>
</linearGradient>
</defs>
</svg>
