<svg xmlns="http://www.w3.org/2000/svg" xmlns:xlink="http://www.w3.org/1999/xlink" width="396" zoomAndPan="magnify" viewBox="0 0 297 114.749999" height="153" preserveAspectRatio="xMidYMid meet" version="1.0"><defs><clipPath id="35477e7747"><path d="M 94.0625 0 L 187 0 L 187 68 L 94.0625 68 Z M 94.0625 0 " clip-rule="nonzero"/></clipPath><clipPath id="4a73afffe6"><path d="M 118 0 L 202.578125 0 L 202.578125 68 L 118 68 Z M 118 0 " clip-rule="nonzero"/></clipPath><clipPath id="1256b8470e"><path d="M 0.324219 86.699219 L 295.929688 86.699219 L 295.929688 113.640625 L 0.324219 113.640625 Z M 0.324219 86.699219 " clip-rule="nonzero"/></clipPath><clipPath id="e5ad242ac0"><path d="M 81 86.699219 L 194 86.699219 L 194 113.640625 L 81 113.640625 Z M 81 86.699219 " clip-rule="nonzero"/></clipPath></defs><g clip-path="url(#35477e7747)"><path fill="#000000" d="M 113.335938 67.441406 L 94.066406 0 L 109.621094 0 L 120.765625 46.859375 L 121.324219 46.859375 L 133.621094 0 L 146.9375 0 L 159.203125 46.960938 L 159.792969 46.960938 L 170.941406 0 L 186.492188 0 L 167.226562 67.441406 L 153.351562 67.441406 L 140.527344 23.347656 L 140 23.347656 L 127.210938 67.441406 Z M 113.335938 67.441406 " fill-opacity="1" fill-rule="nonzero"/></g><path fill="#8884d8" d="M 124.1875 67.441406 L 104.917969 0 L 120.46875 0 L 131.617188 46.859375 L 132.175781 46.859375 L 144.472656 0 L 157.789062 0 L 170.050781 46.960938 L 170.644531 46.960938 L 181.792969 0 L 197.34375 0 L 178.074219 67.441406 L 164.199219 67.441406 L 151.378906 23.347656 L 150.851562 23.347656 L 138.0625 67.441406 Z M 124.1875 67.441406 " fill-opacity="1" fill-rule="nonzero"/><g clip-path="url(#4a73afffe6)"><path fill="#000000" d="M 136.582031 67.441406 L 118.167969 0 L 126.453125 0 L 140.527344 54.929688 L 141.183594 54.929688 L 155.519531 0 L 164.726562 0 L 179.0625 54.929688 L 179.71875 54.929688 L 193.792969 0 L 202.078125 0 L 183.664062 67.441406 L 175.246094 67.441406 L 160.386719 13.699219 L 159.859375 13.699219 L 145 67.441406 Z M 136.582031 67.441406 " fill-opacity="1" fill-rule="nonzero"/></g><g clip-path="url(#1256b8470e)"><path fill="#f7f8fa" d="M 8.019531 113.375 L 0.460938 86.957031 L 6.5625 86.957031 L 10.9375 105.3125 L 11.15625 105.3125 L 15.980469 86.957031 L 21.203125 86.957031 L 26.015625 105.351562 L 26.25 105.351562 L 30.621094 86.957031 L 36.722656 86.957031 L 29.164062 113.375 L 23.71875 113.375 L 18.6875 96.101562 L 18.484375 96.101562 L 13.464844 113.375 Z M 45.105469 101.917969 L 45.105469 113.375 L 39.609375 113.375 L 39.609375 86.957031 L 44.949219 86.957031 L 44.949219 97.054688 L 45.183594 97.054688 C 45.628906 95.886719 46.351562 94.972656 47.351562 94.308594 C 48.347656 93.636719 49.597656 93.300781 51.105469 93.300781 C 52.480469 93.300781 53.679688 93.601562 54.703125 94.207031 C 55.734375 94.800781 56.535156 95.65625 57.101562 96.773438 C 57.679688 97.882812 57.964844 99.210938 57.953125 100.757812 L 57.953125 113.375 L 52.457031 113.375 L 52.457031 101.738281 C 52.46875 100.519531 52.15625 99.566406 51.53125 98.886719 C 50.910156 98.207031 50.042969 97.867188 48.925781 97.867188 C 48.175781 97.867188 47.515625 98.027344 46.9375 98.347656 C 46.371094 98.664062 45.921875 99.128906 45.597656 99.738281 C 45.277344 100.339844 45.113281 101.070312 45.105469 101.917969 Z M 71.230469 113.761719 C 69.226562 113.761719 67.496094 113.335938 66.03125 112.484375 C 64.578125 111.625 63.457031 110.429688 62.667969 108.898438 C 61.875 107.359375 61.480469 105.574219 61.480469 103.546875 C 61.480469 101.5 61.875 99.710938 62.667969 98.179688 C 63.457031 96.640625 64.578125 95.445312 66.03125 94.59375 C 67.496094 93.734375 69.226562 93.300781 71.230469 93.300781 C 73.234375 93.300781 74.964844 93.734375 76.417969 94.59375 C 77.878906 95.445312 79.007812 96.640625 79.796875 98.179688 C 80.589844 99.710938 80.984375 101.5 80.984375 103.546875 C 80.984375 105.574219 80.589844 107.359375 79.796875 108.898438 C 79.007812 110.429688 77.878906 111.625 76.417969 112.484375 C 74.964844 113.335938 73.234375 113.761719 71.230469 113.761719 Z M 71.257812 109.503906 C 72.167969 109.503906 72.929688 109.246094 73.539062 108.730469 C 74.152344 108.207031 74.613281 107.492188 74.921875 106.589844 C 75.238281 105.6875 75.398438 104.660156 75.398438 103.507812 C 75.398438 102.355469 75.238281 101.328125 74.921875 100.421875 C 74.613281 99.519531 74.152344 98.804688 73.539062 98.28125 C 72.929688 97.757812 72.167969 97.496094 71.257812 97.496094 C 70.335938 97.496094 69.5625 97.757812 68.9375 98.28125 C 68.316406 98.804688 67.847656 99.519531 67.53125 100.421875 C 67.21875 101.328125 67.066406 102.355469 67.066406 103.507812 C 67.066406 104.660156 67.21875 105.6875 67.53125 106.589844 C 67.847656 107.492188 68.316406 108.207031 68.9375 108.730469 C 69.5625 109.246094 70.335938 109.503906 71.257812 109.503906 Z M 201.71875 113.375 L 194.160156 86.957031 L 200.261719 86.957031 L 204.632812 105.3125 L 204.851562 105.3125 L 209.675781 86.957031 L 214.902344 86.957031 L 219.714844 105.351562 L 219.945312 105.351562 L 224.320312 86.957031 L 230.421875 86.957031 L 222.859375 113.375 L 217.417969 113.375 L 212.386719 96.101562 L 212.179688 96.101562 L 207.160156 113.375 Z M 238.804688 101.917969 L 238.804688 113.375 L 233.308594 113.375 L 233.308594 86.957031 L 238.648438 86.957031 L 238.648438 97.054688 L 238.878906 97.054688 C 239.328125 95.886719 240.050781 94.972656 241.046875 94.308594 C 242.046875 93.636719 243.296875 93.300781 244.800781 93.300781 C 246.175781 93.300781 247.378906 93.601562 248.402344 94.207031 C 249.433594 94.800781 250.234375 95.65625 250.800781 96.773438 C 251.375 97.882812 251.660156 99.210938 251.652344 100.757812 L 251.652344 113.375 L 246.15625 113.375 L 246.15625 101.738281 C 246.164062 100.519531 245.855469 99.566406 245.226562 98.886719 C 244.609375 98.207031 243.738281 97.867188 242.621094 97.867188 C 241.875 97.867188 241.210938 98.027344 240.632812 98.347656 C 240.066406 98.664062 239.621094 99.128906 239.292969 99.738281 C 238.976562 100.339844 238.8125 101.070312 238.804688 101.917969 Z M 265.007812 113.761719 C 262.96875 113.761719 261.214844 113.347656 259.742188 112.523438 C 258.28125 111.691406 257.15625 110.511719 256.363281 108.988281 C 255.570312 107.457031 255.175781 105.648438 255.175781 103.558594 C 255.175781 101.519531 255.570312 99.730469 256.363281 98.191406 C 257.15625 96.652344 258.269531 95.453125 259.703125 94.59375 C 261.148438 93.734375 262.84375 93.300781 264.789062 93.300781 C 266.09375 93.300781 267.3125 93.511719 268.4375 93.933594 C 269.574219 94.347656 270.5625 94.972656 271.40625 95.804688 C 272.257812 96.640625 272.917969 97.6875 273.390625 98.953125 C 273.863281 100.207031 274.101562 101.679688 274.101562 103.363281 L 274.101562 104.875 L 257.371094 104.875 L 257.371094 101.46875 L 268.929688 101.46875 C 268.929688 100.675781 268.757812 99.976562 268.410156 99.367188 C 268.066406 98.753906 267.589844 98.277344 266.980469 97.933594 C 266.378906 97.582031 265.675781 97.40625 264.878906 97.40625 C 264.042969 97.40625 263.304688 97.597656 262.660156 97.984375 C 262.023438 98.363281 261.523438 98.875 261.164062 99.519531 C 260.800781 100.15625 260.617188 100.867188 260.609375 101.648438 L 260.609375 104.886719 C 260.609375 105.867188 260.789062 106.714844 261.148438 107.429688 C 261.519531 108.140625 262.039062 108.691406 262.710938 109.078125 C 263.382812 109.464844 264.175781 109.660156 265.097656 109.660156 C 265.707031 109.660156 266.265625 109.574219 266.773438 109.402344 C 267.28125 109.230469 267.714844 108.972656 268.078125 108.628906 C 268.4375 108.285156 268.714844 107.863281 268.902344 107.363281 L 273.984375 107.699219 C 273.726562 108.921875 273.199219 109.988281 272.398438 110.898438 C 271.605469 111.800781 270.582031 112.507812 269.328125 113.015625 C 268.082031 113.511719 266.640625 113.761719 265.007812 113.761719 Z M 283.183594 101.917969 L 283.183594 113.375 L 277.6875 113.375 L 277.6875 93.558594 L 282.925781 93.558594 L 282.925781 97.054688 L 283.15625 97.054688 C 283.59375 95.902344 284.332031 94.992188 285.363281 94.320312 C 286.394531 93.640625 287.648438 93.300781 289.117188 93.300781 C 290.492188 93.300781 291.695312 93.601562 292.714844 94.207031 C 293.742188 94.808594 294.535156 95.667969 295.101562 96.785156 C 295.671875 97.894531 295.953125 99.21875 295.953125 100.757812 L 295.953125 113.375 L 290.460938 113.375 L 290.460938 101.738281 C 290.46875 100.527344 290.160156 99.582031 289.527344 98.902344 C 288.902344 98.214844 288.039062 97.867188 286.9375 97.867188 C 286.195312 97.867188 285.542969 98.027344 284.976562 98.347656 C 284.417969 98.664062 283.980469 99.128906 283.660156 99.738281 C 283.351562 100.339844 283.191406 101.070312 283.183594 101.917969 Z M 283.183594 101.917969 " fill-opacity="1" fill-rule="nonzero"/></g><g clip-path="url(#e5ad242ac0)"><path fill="#8884d8" d="M 88.761719 113.375 L 81.203125 86.957031 L 87.304688 86.957031 L 91.679688 105.3125 L 91.898438 105.3125 L 96.722656 86.957031 L 101.949219 86.957031 L 106.757812 105.351562 L 106.992188 105.351562 L 111.363281 86.957031 L 117.464844 86.957031 L 109.90625 113.375 L 104.464844 113.375 L 99.433594 96.101562 L 99.226562 96.101562 L 94.207031 113.375 Z M 127.175781 113.761719 C 125.171875 113.761719 123.441406 113.335938 121.976562 112.484375 C 120.523438 111.625 119.402344 110.429688 118.609375 108.898438 C 117.820312 107.359375 117.425781 105.574219 117.425781 103.546875 C 117.425781 101.5 117.820312 99.710938 118.609375 98.179688 C 119.402344 96.640625 120.523438 95.445312 121.976562 94.59375 C 123.441406 93.734375 125.171875 93.300781 127.175781 93.300781 C 129.179688 93.300781 130.910156 93.734375 132.363281 94.59375 C 133.824219 95.445312 134.953125 96.640625 135.742188 98.179688 C 136.535156 99.710938 136.929688 101.5 136.929688 103.546875 C 136.929688 105.574219 136.535156 107.359375 135.742188 108.898438 C 134.953125 110.429688 133.824219 111.625 132.363281 112.484375 C 130.910156 113.335938 129.179688 113.761719 127.175781 113.761719 Z M 127.203125 109.503906 C 128.113281 109.503906 128.875 109.246094 129.484375 108.730469 C 130.097656 108.207031 130.558594 107.492188 130.867188 106.589844 C 131.183594 105.6875 131.34375 104.660156 131.34375 103.507812 C 131.34375 102.355469 131.183594 101.328125 130.867188 100.421875 C 130.558594 99.519531 130.097656 98.804688 129.484375 98.28125 C 128.875 97.757812 128.113281 97.496094 127.203125 97.496094 C 126.28125 97.496094 125.507812 97.757812 124.878906 98.28125 C 124.261719 98.804688 123.792969 99.519531 123.472656 100.421875 C 123.164062 101.328125 123.011719 102.355469 123.011719 103.507812 C 123.011719 104.660156 123.164062 105.6875 123.472656 106.589844 C 123.792969 107.492188 124.261719 108.207031 124.878906 108.730469 C 125.507812 109.246094 126.28125 109.503906 127.203125 109.503906 Z M 140.503906 113.375 L 140.503906 93.558594 L 145.832031 93.558594 L 145.832031 97.019531 L 146.039062 97.019531 C 146.398438 95.789062 147.003906 94.859375 147.855469 94.230469 C 148.707031 93.59375 149.6875 93.277344 150.796875 93.277344 C 151.074219 93.277344 151.371094 93.292969 151.6875 93.328125 C 152.003906 93.363281 152.285156 93.410156 152.527344 93.46875 L 152.527344 98.347656 C 152.269531 98.269531 151.910156 98.199219 151.457031 98.140625 C 151 98.078125 150.582031 98.050781 150.203125 98.050781 C 149.394531 98.050781 148.671875 98.226562 148.035156 98.578125 C 147.410156 98.921875 146.910156 99.402344 146.539062 100.023438 C 146.179688 100.644531 146 101.355469 146 102.164062 L 146 113.375 Z M 160.347656 107.671875 L 160.359375 101.082031 L 161.160156 101.082031 L 167.507812 93.558594 L 173.816406 93.558594 L 165.289062 103.519531 L 163.984375 103.519531 Z M 155.367188 113.375 L 155.367188 86.957031 L 160.863281 86.957031 L 160.863281 113.375 Z M 167.75 113.375 L 161.921875 104.746094 L 165.585938 100.863281 L 174.1875 113.375 Z M 192.996094 99.210938 L 187.964844 99.519531 C 187.878906 99.089844 187.695312 98.703125 187.410156 98.359375 C 187.128906 98.007812 186.753906 97.726562 186.289062 97.519531 C 185.832031 97.304688 185.289062 97.199219 184.652344 97.199219 C 183.800781 97.199219 183.082031 97.378906 182.496094 97.738281 C 181.910156 98.09375 181.621094 98.566406 181.621094 99.160156 C 181.621094 99.632812 181.808594 100.03125 182.1875 100.359375 C 182.566406 100.6875 183.214844 100.949219 184.136719 101.144531 L 187.722656 101.867188 C 189.648438 102.265625 191.082031 102.898438 192.03125 103.777344 C 192.976562 104.65625 193.449219 105.808594 193.449219 107.234375 C 193.449219 108.535156 193.066406 109.671875 192.300781 110.652344 C 191.542969 111.632812 190.503906 112.398438 189.179688 112.949219 C 187.863281 113.492188 186.34375 113.761719 184.625 113.761719 C 182.003906 113.761719 179.914062 113.214844 178.355469 112.125 C 176.808594 111.023438 175.898438 109.527344 175.632812 107.632812 L 181.039062 107.351562 C 181.203125 108.152344 181.597656 108.761719 182.226562 109.183594 C 182.851562 109.59375 183.65625 109.800781 184.636719 109.800781 C 185.601562 109.800781 186.375 109.617188 186.960938 109.246094 C 187.554688 108.867188 187.855469 108.382812 187.863281 107.789062 C 187.855469 107.289062 187.644531 106.882812 187.230469 106.5625 C 186.816406 106.238281 186.183594 105.988281 185.320312 105.816406 L 181.890625 105.132812 C 179.957031 104.746094 178.515625 104.074219 177.570312 103.121094 C 176.632812 102.164062 176.164062 100.949219 176.164062 99.46875 C 176.164062 98.195312 176.507812 97.097656 177.195312 96.179688 C 177.890625 95.257812 178.867188 94.550781 180.121094 94.050781 C 181.386719 93.550781 182.867188 93.300781 184.5625 93.300781 C 187.0625 93.300781 189.03125 93.832031 190.46875 94.890625 C 191.914062 95.945312 192.757812 97.386719 192.996094 99.210938 Z M 192.996094 99.210938 " fill-opacity="1" fill-rule="nonzero"/></g></svg>